<svg width="940" height="270" viewBox="0 0 940 270" fill="none" xmlns="http://www.w3.org/2000/svg">
<rect width="940" height="270" fill="#878787"/>
<rect opacity="0.4" x="184" width="582" height="270" fill="#B7B7B7"/>
<path d="M393.975 121.182V122.972H388.171V121.182H393.975ZM389.622 131V120.255C389.622 119.594 389.759 119.045 390.032 118.606C390.309 118.167 390.679 117.839 391.144 117.621C391.608 117.404 392.124 117.295 392.691 117.295C393.091 117.295 393.447 117.327 393.758 117.391C394.069 117.455 394.299 117.513 394.448 117.564L393.988 119.354C393.89 119.324 393.767 119.294 393.617 119.264C393.468 119.23 393.302 119.213 393.119 119.213C392.688 119.213 392.384 119.317 392.205 119.526C392.03 119.731 391.943 120.025 391.943 120.408V131H389.622ZM395.788 131V121.182H398.101V131H395.788ZM396.951 119.788C396.584 119.788 396.269 119.667 396.005 119.424C395.741 119.177 395.609 118.881 395.609 118.536C395.609 118.186 395.741 117.89 396.005 117.647C396.269 117.4 396.584 117.276 396.951 117.276C397.322 117.276 397.637 117.4 397.897 117.647C398.161 117.89 398.293 118.186 398.293 118.536C398.293 118.881 398.161 119.177 397.897 119.424C397.637 119.667 397.322 119.788 396.951 119.788ZM405.384 121.182V122.972H399.739V121.182H405.384ZM401.133 118.83H403.447V128.047C403.447 128.358 403.494 128.597 403.587 128.763C403.685 128.925 403.813 129.036 403.971 129.095C404.129 129.155 404.303 129.185 404.495 129.185C404.64 129.185 404.772 129.174 404.891 129.153C405.015 129.131 405.109 129.112 405.173 129.095L405.563 130.904C405.439 130.947 405.262 130.994 405.032 131.045C404.806 131.096 404.529 131.126 404.201 131.134C403.622 131.151 403.1 131.064 402.635 130.872C402.171 130.676 401.802 130.374 401.529 129.964C401.261 129.555 401.129 129.044 401.133 128.43V118.83ZM414.609 131.198C413.987 131.198 413.426 131.087 412.928 130.866C412.434 130.64 412.041 130.308 411.752 129.869C411.466 129.43 411.323 128.888 411.323 128.245C411.323 127.691 411.426 127.233 411.63 126.871C411.835 126.509 412.114 126.219 412.468 126.001C412.821 125.784 413.22 125.62 413.663 125.509C414.11 125.394 414.573 125.311 415.05 125.26C415.625 125.2 416.092 125.147 416.45 125.1C416.808 125.049 417.068 124.972 417.23 124.87C417.396 124.763 417.479 124.599 417.479 124.378V124.339C417.479 123.858 417.336 123.485 417.051 123.221C416.765 122.957 416.354 122.825 415.817 122.825C415.25 122.825 414.801 122.948 414.468 123.195C414.14 123.442 413.919 123.734 413.804 124.071L411.643 123.764C411.813 123.168 412.095 122.669 412.487 122.268C412.879 121.864 413.358 121.561 413.925 121.361C414.492 121.156 415.118 121.054 415.804 121.054C416.277 121.054 416.748 121.109 417.217 121.22C417.686 121.331 418.114 121.514 418.502 121.77C418.889 122.021 419.201 122.364 419.435 122.799C419.674 123.234 419.793 123.777 419.793 124.429V131H417.568V129.651H417.492C417.351 129.924 417.153 130.18 416.897 130.418C416.646 130.653 416.328 130.842 415.945 130.987C415.566 131.128 415.12 131.198 414.609 131.198ZM415.21 129.498C415.674 129.498 416.077 129.406 416.418 129.223C416.759 129.036 417.021 128.788 417.204 128.482C417.392 128.175 417.485 127.84 417.485 127.478V126.321C417.413 126.381 417.289 126.436 417.115 126.487C416.944 126.538 416.752 126.583 416.539 126.621C416.326 126.66 416.115 126.694 415.907 126.724C415.698 126.754 415.517 126.779 415.363 126.8C415.018 126.847 414.709 126.924 414.436 127.031C414.164 127.137 413.948 127.286 413.791 127.478C413.633 127.665 413.554 127.908 413.554 128.207C413.554 128.633 413.71 128.955 414.021 129.172C414.332 129.389 414.728 129.498 415.21 129.498ZM424.434 117.909V131H422.12V117.909H424.434ZM429.127 117.909V131H426.813V117.909H429.127ZM439.615 131.173C438.843 131.173 438.153 130.974 437.544 130.578C436.934 130.182 436.453 129.607 436.099 128.852C435.745 128.098 435.568 127.182 435.568 126.104C435.568 125.013 435.747 124.092 436.105 123.342C436.468 122.588 436.956 122.019 437.569 121.636C438.183 121.248 438.867 121.054 439.621 121.054C440.196 121.054 440.669 121.152 441.04 121.348C441.411 121.54 441.705 121.772 441.922 122.045C442.139 122.313 442.308 122.567 442.427 122.805H442.523V117.909H444.843V131H442.568V129.453H442.427C442.308 129.692 442.135 129.945 441.909 130.214C441.684 130.478 441.385 130.704 441.014 130.891C440.644 131.079 440.177 131.173 439.615 131.173ZM440.26 129.274C440.75 129.274 441.168 129.142 441.513 128.878C441.858 128.609 442.12 128.237 442.299 127.759C442.478 127.282 442.568 126.726 442.568 126.091C442.568 125.456 442.478 124.904 442.299 124.435C442.125 123.967 441.865 123.602 441.519 123.342C441.179 123.082 440.759 122.952 440.26 122.952C439.745 122.952 439.314 123.087 438.969 123.355C438.624 123.624 438.364 123.994 438.189 124.467C438.014 124.94 437.927 125.482 437.927 126.091C437.927 126.705 438.014 127.252 438.189 127.734C438.368 128.211 438.63 128.588 438.975 128.865C439.325 129.138 439.753 129.274 440.26 129.274ZM451.656 131.192C450.671 131.192 449.821 130.987 449.105 130.578C448.394 130.165 447.846 129.581 447.462 128.827C447.079 128.068 446.887 127.175 446.887 126.148C446.887 125.138 447.079 124.252 447.462 123.489C447.85 122.722 448.391 122.126 449.086 121.7C449.781 121.269 450.597 121.054 451.534 121.054C452.139 121.054 452.71 121.152 453.247 121.348C453.788 121.54 454.266 121.838 454.679 122.243C455.097 122.648 455.425 123.163 455.663 123.79C455.902 124.412 456.021 125.153 456.021 126.014V126.724H447.974V125.164H453.803C453.799 124.721 453.703 124.327 453.516 123.982C453.328 123.632 453.066 123.357 452.729 123.157C452.397 122.957 452.009 122.857 451.566 122.857C451.093 122.857 450.678 122.972 450.32 123.202C449.962 123.428 449.683 123.726 449.482 124.097C449.286 124.463 449.186 124.866 449.182 125.305V126.666C449.182 127.237 449.286 127.727 449.495 128.136C449.704 128.541 449.996 128.852 450.371 129.07C450.746 129.283 451.185 129.389 451.688 129.389C452.024 129.389 452.329 129.342 452.602 129.249C452.874 129.151 453.111 129.008 453.311 128.82C453.511 128.633 453.663 128.401 453.765 128.124L455.926 128.366C455.789 128.937 455.529 129.436 455.146 129.862C454.766 130.284 454.281 130.612 453.688 130.847C453.096 131.077 452.418 131.192 451.656 131.192ZM466.468 121.182L462.971 131H460.414L456.918 121.182H459.385L461.642 128.475H461.744L464.007 121.182H466.468ZM468.069 131V121.182H470.383V131H468.069ZM469.232 119.788C468.866 119.788 468.55 119.667 468.286 119.424C468.022 119.177 467.89 118.881 467.89 118.536C467.89 118.186 468.022 117.89 468.286 117.647C468.55 117.4 468.866 117.276 469.232 117.276C469.603 117.276 469.918 117.4 470.178 117.647C470.442 117.89 470.574 118.186 470.574 118.536C470.574 118.881 470.442 119.177 470.178 119.424C469.918 119.667 469.603 119.788 469.232 119.788ZM477.045 131.192C476.065 131.192 475.223 130.977 474.52 130.546C473.821 130.116 473.282 129.521 472.903 128.763C472.528 128 472.34 127.122 472.34 126.129C472.34 125.132 472.532 124.252 472.916 123.489C473.299 122.722 473.84 122.126 474.539 121.7C475.242 121.269 476.073 121.054 477.032 121.054C477.829 121.054 478.534 121.201 479.148 121.495C479.766 121.785 480.258 122.196 480.624 122.729C480.991 123.257 481.2 123.875 481.251 124.582H479.039C478.95 124.109 478.737 123.715 478.4 123.4C478.068 123.08 477.622 122.92 477.064 122.92C476.591 122.92 476.176 123.048 475.818 123.304C475.46 123.555 475.18 123.918 474.98 124.391C474.784 124.864 474.686 125.43 474.686 126.091C474.686 126.76 474.784 127.335 474.98 127.817C475.176 128.294 475.451 128.663 475.805 128.923C476.163 129.178 476.582 129.306 477.064 129.306C477.405 129.306 477.71 129.242 477.978 129.114C478.251 128.982 478.479 128.793 478.662 128.545C478.845 128.298 478.971 127.998 479.039 127.644H481.251C481.195 128.339 480.991 128.955 480.637 129.491C480.283 130.024 479.802 130.442 479.193 130.744C478.583 131.043 477.867 131.192 477.045 131.192ZM487.497 131.192C486.513 131.192 485.663 130.987 484.947 130.578C484.235 130.165 483.688 129.581 483.304 128.827C482.921 128.068 482.729 127.175 482.729 126.148C482.729 125.138 482.921 124.252 483.304 123.489C483.692 122.722 484.233 122.126 484.928 121.7C485.622 121.269 486.438 121.054 487.376 121.054C487.981 121.054 488.552 121.152 489.089 121.348C489.63 121.54 490.108 121.838 490.521 122.243C490.938 122.648 491.267 123.163 491.505 123.79C491.744 124.412 491.863 125.153 491.863 126.014V126.724H483.816V125.164H489.645C489.641 124.721 489.545 124.327 489.358 123.982C489.17 123.632 488.908 123.357 488.571 123.157C488.239 122.957 487.851 122.857 487.408 122.857C486.935 122.857 486.519 122.972 486.161 123.202C485.804 123.428 485.524 123.726 485.324 124.097C485.128 124.463 485.028 124.866 485.024 125.305V126.666C485.024 127.237 485.128 127.727 485.337 128.136C485.546 128.541 485.838 128.852 486.213 129.07C486.588 129.283 487.027 129.389 487.529 129.389C487.866 129.389 488.171 129.342 488.443 129.249C488.716 129.151 488.953 129.008 489.153 128.82C489.353 128.633 489.505 128.401 489.607 128.124L491.767 128.366C491.631 128.937 491.371 129.436 490.987 129.862C490.608 130.284 490.122 130.612 489.53 130.847C488.938 131.077 488.26 131.192 487.497 131.192ZM501.581 123.777L499.471 124.007C499.412 123.794 499.307 123.594 499.158 123.406C499.013 123.219 498.817 123.067 498.57 122.952C498.323 122.837 498.02 122.78 497.662 122.78C497.181 122.78 496.776 122.884 496.448 123.093C496.124 123.302 495.964 123.572 495.968 123.905C495.964 124.19 496.069 124.423 496.282 124.602C496.499 124.781 496.857 124.928 497.356 125.043L499.03 125.401C499.959 125.601 500.65 125.918 501.101 126.353C501.557 126.788 501.787 127.357 501.792 128.06C501.787 128.678 501.606 129.223 501.248 129.696C500.895 130.165 500.402 130.531 499.772 130.795C499.141 131.06 498.417 131.192 497.598 131.192C496.397 131.192 495.429 130.94 494.696 130.438C493.964 129.93 493.527 129.225 493.386 128.322L495.642 128.104C495.745 128.548 495.962 128.882 496.294 129.108C496.627 129.334 497.059 129.447 497.592 129.447C498.142 129.447 498.583 129.334 498.915 129.108C499.252 128.882 499.42 128.603 499.42 128.271C499.42 127.989 499.312 127.757 499.094 127.574C498.881 127.391 498.549 127.25 498.097 127.152L496.422 126.8C495.481 126.604 494.784 126.274 494.332 125.81C493.88 125.341 493.657 124.749 493.661 124.033C493.657 123.428 493.821 122.903 494.153 122.46C494.49 122.013 494.956 121.668 495.553 121.425C496.154 121.178 496.846 121.054 497.63 121.054C498.781 121.054 499.687 121.299 500.347 121.789C501.012 122.279 501.423 122.942 501.581 123.777ZM516.934 121.182L513.438 131H510.881L507.385 121.182H509.852L512.108 128.475H512.211L514.473 121.182H516.934ZM518.536 131V121.182H520.85V131H518.536ZM519.699 119.788C519.332 119.788 519.017 119.667 518.753 119.424C518.489 119.177 518.357 118.881 518.357 118.536C518.357 118.186 518.489 117.89 518.753 117.647C519.017 117.4 519.332 117.276 519.699 117.276C520.07 117.276 520.385 117.4 520.645 117.647C520.909 117.89 521.041 118.186 521.041 118.536C521.041 118.881 520.909 119.177 520.645 119.424C520.385 119.667 520.07 119.788 519.699 119.788ZM527.576 131.192C526.591 131.192 525.741 130.987 525.025 130.578C524.313 130.165 523.766 129.581 523.382 128.827C522.999 128.068 522.807 127.175 522.807 126.148C522.807 125.138 522.999 124.252 523.382 123.489C523.77 122.722 524.311 122.126 525.006 121.7C525.701 121.269 526.517 121.054 527.454 121.054C528.059 121.054 528.63 121.152 529.167 121.348C529.708 121.54 530.186 121.838 530.599 122.243C531.017 122.648 531.345 123.163 531.583 123.79C531.822 124.412 531.941 125.153 531.941 126.014V126.724H523.894V125.164H529.723C529.719 124.721 529.623 124.327 529.436 123.982C529.248 123.632 528.986 123.357 528.649 123.157C528.317 122.957 527.929 122.857 527.486 122.857C527.013 122.857 526.598 122.972 526.24 123.202C525.882 123.428 525.603 123.726 525.402 124.097C525.206 124.463 525.106 124.866 525.102 125.305V126.666C525.102 127.237 525.206 127.727 525.415 128.136C525.624 128.541 525.916 128.852 526.291 129.07C526.666 129.283 527.105 129.389 527.608 129.389C527.944 129.389 528.249 129.342 528.522 129.249C528.794 129.151 529.031 129.008 529.231 128.82C529.431 128.633 529.583 128.401 529.685 128.124L531.845 128.366C531.709 128.937 531.449 129.436 531.066 129.862C530.686 130.284 530.201 130.612 529.608 130.847C529.016 131.077 528.338 131.192 527.576 131.192ZM535.872 131L533.098 121.182H535.457L537.183 128.085H537.272L539.036 121.182H541.37L543.134 128.047H543.23L544.93 121.182H547.295L544.514 131H542.105L540.264 124.365H540.13L538.289 131H535.872ZM429.374 153.179C428.624 153.179 427.948 153.03 427.347 152.732C426.747 152.433 426.265 152.024 425.903 151.504C425.541 150.984 425.343 150.392 425.308 149.727H426.843C426.902 150.32 427.171 150.81 427.648 151.197C428.129 151.581 428.705 151.773 429.374 151.773C429.911 151.773 430.388 151.647 430.806 151.396C431.227 151.144 431.558 150.799 431.796 150.36C432.039 149.917 432.161 149.416 432.161 148.858C432.161 148.287 432.035 147.778 431.784 147.33C431.536 146.879 431.195 146.523 430.761 146.263C430.326 146.003 429.83 145.871 429.271 145.866C428.871 145.862 428.46 145.924 428.038 146.052C427.616 146.175 427.269 146.335 426.996 146.531L425.513 146.352L426.306 139.909H433.107V141.315H427.635L427.175 145.176H427.252C427.52 144.963 427.857 144.786 428.262 144.646C428.666 144.505 429.088 144.435 429.527 144.435C430.328 144.435 431.042 144.626 431.669 145.01C432.299 145.389 432.794 145.909 433.151 146.57C433.514 147.23 433.695 147.984 433.695 148.832C433.695 149.668 433.507 150.413 433.132 151.07C432.762 151.722 432.25 152.237 431.598 152.616C430.946 152.991 430.205 153.179 429.374 153.179ZM440.427 153.179C439.549 153.179 438.774 153.023 438.1 152.712C437.431 152.397 436.909 151.964 436.534 151.415C436.159 150.861 435.974 150.23 435.978 149.523C435.974 148.969 436.083 148.457 436.304 147.989C436.526 147.516 436.828 147.121 437.212 146.806C437.6 146.487 438.032 146.284 438.51 146.199V146.122C437.883 145.96 437.385 145.609 437.014 145.067C436.643 144.522 436.46 143.902 436.464 143.207C436.46 142.543 436.628 141.948 436.969 141.424C437.31 140.9 437.779 140.487 438.375 140.184C438.976 139.881 439.66 139.73 440.427 139.73C441.186 139.73 441.863 139.881 442.46 140.184C443.056 140.487 443.525 140.9 443.866 141.424C444.211 141.948 444.386 142.543 444.39 143.207C444.386 143.902 444.196 144.522 443.821 145.067C443.451 145.609 442.958 145.96 442.345 146.122V146.199C442.818 146.284 443.244 146.487 443.623 146.806C444.002 147.121 444.305 147.516 444.531 147.989C444.757 148.457 444.872 148.969 444.876 149.523C444.872 150.23 444.68 150.861 444.301 151.415C443.926 151.964 443.404 152.397 442.735 152.712C442.07 153.023 441.301 153.179 440.427 153.179ZM440.427 151.773C441.02 151.773 441.531 151.677 441.961 151.485C442.392 151.293 442.724 151.023 442.958 150.673C443.193 150.324 443.312 149.915 443.316 149.446C443.312 148.952 443.184 148.515 442.933 148.136C442.681 147.756 442.338 147.458 441.904 147.241C441.473 147.023 440.981 146.915 440.427 146.915C439.869 146.915 439.37 147.023 438.931 147.241C438.497 147.458 438.154 147.756 437.902 148.136C437.655 148.515 437.534 148.952 437.538 149.446C437.534 149.915 437.647 150.324 437.877 150.673C438.111 151.023 438.446 151.293 438.88 151.485C439.315 151.677 439.831 151.773 440.427 151.773ZM440.427 145.56C440.896 145.56 441.311 145.466 441.674 145.278C442.04 145.091 442.328 144.829 442.537 144.492C442.745 144.156 442.852 143.761 442.856 143.31C442.852 142.866 442.748 142.481 442.543 142.153C442.338 141.82 442.055 141.565 441.693 141.386C441.331 141.202 440.909 141.111 440.427 141.111C439.937 141.111 439.509 141.202 439.142 141.386C438.776 141.565 438.493 141.82 438.292 142.153C438.092 142.481 437.994 142.866 437.998 143.31C437.994 143.761 438.094 144.156 438.299 144.492C438.507 144.829 438.795 145.091 439.162 145.278C439.528 145.466 439.95 145.56 440.427 145.56ZM451.596 153.179C450.633 153.179 449.812 152.917 449.135 152.393C448.457 151.864 447.939 151.099 447.581 150.098C447.224 149.092 447.045 147.878 447.045 146.455C447.045 145.04 447.224 143.832 447.581 142.83C447.944 141.825 448.464 141.058 449.141 140.529C449.823 139.996 450.641 139.73 451.596 139.73C452.55 139.73 453.366 139.996 454.044 140.529C454.726 141.058 455.246 141.825 455.604 142.83C455.966 143.832 456.147 145.04 456.147 146.455C456.147 147.878 455.968 149.092 455.61 150.098C455.252 151.099 454.734 151.864 454.057 152.393C453.379 152.917 452.559 153.179 451.596 153.179ZM451.596 151.773C452.55 151.773 453.292 151.312 453.82 150.392C454.349 149.472 454.613 148.159 454.613 146.455C454.613 145.321 454.491 144.356 454.248 143.559C454.01 142.762 453.665 142.155 453.213 141.737C452.765 141.32 452.226 141.111 451.596 141.111C450.65 141.111 449.91 141.577 449.378 142.511C448.845 143.44 448.579 144.754 448.579 146.455C448.579 147.588 448.698 148.551 448.937 149.344C449.175 150.136 449.518 150.739 449.966 151.153C450.417 151.566 450.961 151.773 451.596 151.773ZM463.229 139.295L459.01 154.969H457.63L461.849 139.295H463.229ZM464.992 153V151.849L469.313 147.119C469.82 146.565 470.238 146.084 470.566 145.675C470.894 145.261 471.137 144.874 471.294 144.511C471.456 144.145 471.537 143.761 471.537 143.361C471.537 142.901 471.426 142.502 471.205 142.165C470.988 141.829 470.689 141.569 470.31 141.386C469.931 141.202 469.505 141.111 469.032 141.111C468.529 141.111 468.09 141.215 467.715 141.424C467.344 141.629 467.056 141.916 466.852 142.287C466.652 142.658 466.551 143.092 466.551 143.591H465.043C465.043 142.824 465.22 142.151 465.574 141.571C465.927 140.991 466.409 140.54 467.018 140.216C467.632 139.892 468.32 139.73 469.083 139.73C469.85 139.73 470.529 139.892 471.122 140.216C471.714 140.54 472.179 140.977 472.515 141.526C472.852 142.076 473.02 142.688 473.02 143.361C473.02 143.842 472.933 144.313 472.758 144.773C472.588 145.229 472.289 145.739 471.863 146.301C471.441 146.859 470.855 147.541 470.105 148.347L467.165 151.491V151.594H473.25V153H464.992ZM476.299 153L482.154 141.418V141.315H475.404V139.909H483.791V141.392L477.961 153H476.299ZM490.162 153.179C489.199 153.179 488.379 152.917 487.701 152.393C487.024 151.864 486.506 151.099 486.148 150.098C485.79 149.092 485.611 147.878 485.611 146.455C485.611 145.04 485.79 143.832 486.148 142.83C486.51 141.825 487.03 141.058 487.708 140.529C488.389 139.996 489.208 139.73 490.162 139.73C491.117 139.73 491.933 139.996 492.61 140.529C493.292 141.058 493.812 141.825 494.17 142.83C494.532 143.832 494.713 145.04 494.713 146.455C494.713 147.878 494.534 149.092 494.176 150.098C493.818 151.099 493.301 151.864 492.623 152.393C491.945 152.917 491.125 153.179 490.162 153.179ZM490.162 151.773C491.117 151.773 491.858 151.312 492.387 150.392C492.915 149.472 493.179 148.159 493.179 146.455C493.179 145.321 493.058 144.356 492.815 143.559C492.576 142.762 492.231 142.155 491.779 141.737C491.332 141.32 490.793 141.111 490.162 141.111C489.216 141.111 488.477 141.577 487.944 142.511C487.411 143.44 487.145 144.754 487.145 146.455C487.145 147.588 487.264 148.551 487.503 149.344C487.742 150.136 488.085 150.739 488.532 151.153C488.984 151.566 489.527 151.773 490.162 151.773ZM497.168 156.682V143.182H498.625V144.741H498.804C498.915 144.571 499.068 144.354 499.264 144.089C499.465 143.821 499.75 143.582 500.121 143.374C500.496 143.161 501.003 143.054 501.642 143.054C502.469 143.054 503.198 143.261 503.828 143.674C504.459 144.087 504.951 144.673 505.305 145.432C505.659 146.19 505.835 147.085 505.835 148.116C505.835 149.156 505.659 150.058 505.305 150.82C504.951 151.579 504.461 152.167 503.835 152.585C503.208 152.998 502.486 153.205 501.668 153.205C501.037 153.205 500.532 153.1 500.153 152.891C499.774 152.678 499.482 152.437 499.277 152.169C499.073 151.896 498.915 151.67 498.804 151.491H498.676V156.682H497.168ZM498.651 148.091C498.651 148.832 498.759 149.487 498.977 150.053C499.194 150.616 499.512 151.057 499.929 151.376C500.347 151.692 500.858 151.849 501.463 151.849C502.094 151.849 502.62 151.683 503.042 151.351C503.468 151.014 503.788 150.562 504.001 149.996C504.218 149.425 504.327 148.79 504.327 148.091C504.327 147.401 504.22 146.778 504.007 146.224C503.798 145.666 503.481 145.225 503.055 144.901C502.633 144.573 502.102 144.409 501.463 144.409C500.85 144.409 500.334 144.565 499.916 144.876C499.499 145.183 499.183 145.613 498.97 146.167C498.757 146.717 498.651 147.358 498.651 148.091ZM508.857 143.182L511.21 147.196L513.562 143.182H515.3L512.13 148.091L515.3 153H513.562L511.21 149.19L508.857 153H507.119L510.238 148.091L507.119 143.182H508.857Z" fill="white"/>
<path d="M31.4178 120.182V121.972H25.6138V120.182H31.4178ZM27.0648 130V119.255C27.0648 118.594 27.2012 118.045 27.4739 117.606C27.7509 117.167 28.1216 116.839 28.5861 116.621C29.0506 116.404 29.5662 116.295 30.133 116.295C30.5336 116.295 30.8894 116.327 31.2005 116.391C31.5115 116.455 31.7417 116.513 31.8908 116.564L31.4306 118.354C31.3326 118.324 31.209 118.294 31.0598 118.264C30.9107 118.23 30.7445 118.213 30.5613 118.213C30.1309 118.213 29.8262 118.317 29.6472 118.526C29.4725 118.731 29.3851 119.025 29.3851 119.408V130H27.0648ZM33.2299 130V120.182H35.5439V130H33.2299ZM34.3933 118.788C34.0268 118.788 33.7115 118.667 33.4473 118.424C33.1831 118.177 33.051 117.881 33.051 117.536C33.051 117.186 33.1831 116.89 33.4473 116.647C33.7115 116.4 34.0268 116.276 34.3933 116.276C34.764 116.276 35.0794 116.4 35.3393 116.647C35.6035 116.89 35.7356 117.186 35.7356 117.536C35.7356 117.881 35.6035 118.177 35.3393 118.424C35.0794 118.667 34.764 118.788 34.3933 118.788ZM42.826 120.182V121.972H37.1818V120.182H42.826ZM38.5753 117.83H40.8892V127.047C40.8892 127.358 40.9361 127.597 41.0298 127.763C41.1278 127.925 41.2557 128.036 41.4134 128.095C41.571 128.155 41.7457 128.185 41.9375 128.185C42.0824 128.185 42.2145 128.174 42.3338 128.153C42.4574 128.131 42.5511 128.112 42.6151 128.095L43.005 129.904C42.8814 129.947 42.7045 129.994 42.4744 130.045C42.2486 130.096 41.9716 130.126 41.6435 130.134C41.0639 130.151 40.5419 130.064 40.0774 129.872C39.6129 129.676 39.2443 129.374 38.9716 128.964C38.7031 128.555 38.571 128.044 38.5753 127.43V117.83ZM52.8695 130.173C52.0982 130.173 51.4078 129.974 50.7985 129.578C50.1891 129.182 49.7076 128.607 49.3539 127.852C49.0002 127.098 48.8233 126.182 48.8233 125.104C48.8233 124.013 49.0023 123.092 49.3603 122.342C49.7225 121.588 50.2104 121.019 50.824 120.636C51.4377 120.248 52.1216 120.054 52.8759 120.054C53.4512 120.054 53.9242 120.152 54.2949 120.348C54.6657 120.54 54.9597 120.772 55.177 121.045C55.3944 121.313 55.5627 121.567 55.682 121.805H55.7779V116.909H58.0982V130H55.8226V128.453H55.682C55.5627 128.692 55.3901 128.945 55.1642 129.214C54.9384 129.478 54.6401 129.704 54.2694 129.891C53.8986 130.079 53.432 130.173 52.8695 130.173ZM53.5151 128.274C54.0051 128.274 54.4228 128.142 54.7679 127.878C55.1131 127.609 55.3752 127.237 55.5542 126.759C55.7331 126.282 55.8226 125.726 55.8226 125.091C55.8226 124.456 55.7331 123.904 55.5542 123.435C55.3794 122.967 55.1195 122.602 54.7743 122.342C54.4334 122.082 54.0137 121.952 53.5151 121.952C52.9995 121.952 52.5691 122.087 52.2239 122.355C51.8787 122.624 51.6188 122.994 51.4441 123.467C51.2694 123.94 51.182 124.482 51.182 125.091C51.182 125.705 51.2694 126.252 51.4441 126.734C51.623 127.211 51.8851 127.588 52.2303 127.865C52.5797 128.138 53.008 128.274 53.5151 128.274ZM64.9105 130.192C63.9261 130.192 63.076 129.987 62.3601 129.578C61.6484 129.165 61.1009 128.581 60.7173 127.827C60.3338 127.068 60.142 126.175 60.142 125.148C60.142 124.138 60.3338 123.252 60.7173 122.489C61.1051 121.722 61.6463 121.126 62.3409 120.7C63.0355 120.269 63.8516 120.054 64.7891 120.054C65.3942 120.054 65.9652 120.152 66.5021 120.348C67.0433 120.54 67.5206 120.838 67.9339 121.243C68.3516 121.648 68.6797 122.163 68.9183 122.79C69.157 123.412 69.2763 124.153 69.2763 125.014V125.724H61.2287V124.164H67.0582C67.054 123.721 66.9581 123.327 66.7706 122.982C66.5831 122.632 66.321 122.357 65.9844 122.157C65.652 121.957 65.2642 121.857 64.821 121.857C64.348 121.857 63.9325 121.972 63.5746 122.202C63.2166 122.428 62.9375 122.726 62.7372 123.097C62.5412 123.463 62.4411 123.866 62.4368 124.305V125.666C62.4368 126.237 62.5412 126.727 62.75 127.136C62.9588 127.541 63.2507 127.852 63.6257 128.07C64.0007 128.283 64.4396 128.389 64.9425 128.389C65.2791 128.389 65.5838 128.342 65.8565 128.249C66.1293 128.151 66.3658 128.008 66.5661 127.82C66.7663 127.633 66.9176 127.401 67.0199 127.124L69.1804 127.366C69.044 127.937 68.7841 128.436 68.4006 128.862C68.0213 129.284 67.5355 129.612 66.9432 129.847C66.3509 130.077 65.6733 130.192 64.9105 130.192ZM78.9938 122.777L76.8844 123.007C76.8248 122.794 76.7203 122.594 76.5712 122.406C76.4263 122.219 76.2303 122.067 75.9831 121.952C75.736 121.837 75.4334 121.78 75.0755 121.78C74.5939 121.78 74.1891 121.884 73.861 122.093C73.5371 122.302 73.3773 122.572 73.3816 122.905C73.3773 123.19 73.4817 123.423 73.6948 123.602C73.9121 123.781 74.2701 123.928 74.7686 124.043L76.4434 124.401C77.3723 124.601 78.0627 124.918 78.5144 125.353C78.9703 125.788 79.2005 126.357 79.2047 127.06C79.2005 127.678 79.0194 128.223 78.6614 128.696C78.3077 129.165 77.8155 129.531 77.1848 129.795C76.5542 130.06 75.8297 130.192 75.0115 130.192C73.8098 130.192 72.8425 129.94 72.1096 129.438C71.3766 128.93 70.9398 128.225 70.7992 127.322L73.0556 127.104C73.1578 127.548 73.3752 127.882 73.7076 128.108C74.04 128.334 74.4725 128.447 75.0051 128.447C75.5549 128.447 75.9959 128.334 76.3283 128.108C76.665 127.882 76.8333 127.603 76.8333 127.271C76.8333 126.989 76.7246 126.757 76.5073 126.574C76.2942 126.391 75.9618 126.25 75.5101 126.152L73.8354 125.8C72.8936 125.604 72.1969 125.274 71.7452 124.81C71.2935 124.341 71.0698 123.749 71.074 123.033C71.0698 122.428 71.2338 121.903 71.5662 121.46C71.9029 121.013 72.3695 120.668 72.9661 120.425C73.5669 120.178 74.2594 120.054 75.0435 120.054C76.1941 120.054 77.0996 120.299 77.7601 120.789C78.4249 121.279 78.8361 121.942 78.9938 122.777ZM83.2221 126.919L83.2157 124.126H83.5865L87.1149 120.182H89.8187L85.4785 125.014H84.9991L83.2221 126.919ZM81.1127 130V116.909H83.4267V130H81.1127ZM87.2747 130L84.0787 125.532L85.6383 123.902L90.0424 130H87.2747ZM96.2635 120.182V121.972H90.6193V120.182H96.2635ZM92.0128 117.83H94.3267V127.047C94.3267 127.358 94.3736 127.597 94.4673 127.763C94.5653 127.925 94.6932 128.036 94.8509 128.095C95.0085 128.155 95.1832 128.185 95.375 128.185C95.5199 128.185 95.652 128.174 95.7713 128.153C95.8949 128.131 95.9886 128.112 96.0526 128.095L96.4425 129.904C96.3189 129.947 96.142 129.994 95.9119 130.045C95.6861 130.096 95.4091 130.126 95.081 130.134C94.5014 130.151 93.9794 130.064 93.5149 129.872C93.0504 129.676 92.6818 129.374 92.4091 128.964C92.1406 128.555 92.0085 128.044 92.0128 127.43V117.83ZM102.376 130.192C101.417 130.192 100.586 129.981 99.883 129.559C99.1799 129.137 98.6344 128.547 98.2466 127.788C97.8631 127.03 97.6713 126.143 97.6713 125.129C97.6713 124.115 97.8631 123.227 98.2466 122.464C98.6344 121.701 99.1799 121.109 99.883 120.687C100.586 120.265 101.417 120.054 102.376 120.054C103.335 120.054 104.166 120.265 104.869 120.687C105.572 121.109 106.115 121.701 106.499 122.464C106.887 123.227 107.08 124.115 107.08 125.129C107.08 126.143 106.887 127.03 106.499 127.788C106.115 128.547 105.572 129.137 104.869 129.559C104.166 129.981 103.335 130.192 102.376 130.192ZM102.389 128.338C102.909 128.338 103.343 128.195 103.693 127.91C104.042 127.62 104.302 127.232 104.472 126.746C104.647 126.261 104.735 125.719 104.735 125.123C104.735 124.522 104.647 123.979 104.472 123.493C104.302 123.003 104.042 122.613 103.693 122.323C103.343 122.033 102.909 121.888 102.389 121.888C101.856 121.888 101.413 122.033 101.059 122.323C100.71 122.613 100.448 123.003 100.273 123.493C100.102 123.979 100.017 124.522 100.017 125.123C100.017 125.719 100.102 126.261 100.273 126.746C100.448 127.232 100.71 127.62 101.059 127.91C101.413 128.195 101.856 128.338 102.389 128.338ZM109.044 133.682V120.182H111.32V121.805H111.454C111.574 121.567 111.742 121.313 111.959 121.045C112.176 120.772 112.471 120.54 112.841 120.348C113.212 120.152 113.685 120.054 114.26 120.054C115.019 120.054 115.703 120.248 116.312 120.636C116.926 121.019 117.412 121.588 117.77 122.342C118.132 123.092 118.313 124.013 118.313 125.104C118.313 126.182 118.136 127.098 117.782 127.852C117.429 128.607 116.947 129.182 116.338 129.578C115.728 129.974 115.038 130.173 114.267 130.173C113.704 130.173 113.238 130.079 112.867 129.891C112.496 129.704 112.198 129.478 111.972 129.214C111.75 128.945 111.578 128.692 111.454 128.453H111.358V133.682H109.044ZM111.314 125.091C111.314 125.726 111.403 126.282 111.582 126.759C111.765 127.237 112.027 127.609 112.368 127.878C112.713 128.142 113.131 128.274 113.621 128.274C114.132 128.274 114.561 128.138 114.906 127.865C115.251 127.588 115.511 127.211 115.686 126.734C115.865 126.252 115.954 125.705 115.954 125.091C115.954 124.482 115.867 123.94 115.692 123.467C115.517 122.994 115.257 122.624 114.912 122.355C114.567 122.087 114.137 121.952 113.621 121.952C113.127 121.952 112.707 122.082 112.362 122.342C112.017 122.602 111.755 122.967 111.576 123.435C111.401 123.904 111.314 124.456 111.314 125.091ZM133.529 120.182L130.033 130H127.476L123.979 120.182H126.447L128.703 127.475H128.805L131.068 120.182H133.529ZM135.13 130V120.182H137.444V130H135.13ZM136.294 118.788C135.927 118.788 135.612 118.667 135.348 118.424C135.083 118.177 134.951 117.881 134.951 117.536C134.951 117.186 135.083 116.89 135.348 116.647C135.612 116.4 135.927 116.276 136.294 116.276C136.664 116.276 136.98 116.4 137.24 116.647C137.504 116.89 137.636 117.186 137.636 117.536C137.636 117.881 137.504 118.177 137.24 118.424C136.98 118.667 136.664 118.788 136.294 118.788ZM144.17 130.192C143.186 130.192 142.336 129.987 141.62 129.578C140.908 129.165 140.361 128.581 139.977 127.827C139.594 127.068 139.402 126.175 139.402 125.148C139.402 124.138 139.594 123.252 139.977 122.489C140.365 121.722 140.906 121.126 141.601 120.7C142.295 120.269 143.111 120.054 144.049 120.054C144.654 120.054 145.225 120.152 145.762 120.348C146.303 120.54 146.78 120.838 147.194 121.243C147.611 121.648 147.939 122.163 148.178 122.79C148.417 123.412 148.536 124.153 148.536 125.014V125.724H140.488V124.164H146.318C146.314 123.721 146.218 123.327 146.03 122.982C145.843 122.632 145.581 122.357 145.244 122.157C144.912 121.957 144.524 121.857 144.081 121.857C143.608 121.857 143.192 121.972 142.834 122.202C142.476 122.428 142.197 122.726 141.997 123.097C141.801 123.463 141.701 123.866 141.697 124.305V125.666C141.697 126.237 141.801 126.727 142.01 127.136C142.219 127.541 142.51 127.852 142.885 128.07C143.26 128.283 143.699 128.389 144.202 128.389C144.539 128.389 144.844 128.342 145.116 128.249C145.389 128.151 145.626 128.008 145.826 127.82C146.026 127.633 146.177 127.401 146.28 127.124L148.44 127.366C148.304 127.937 148.044 128.436 147.66 128.862C147.281 129.284 146.795 129.612 146.203 129.847C145.611 130.077 144.933 130.192 144.17 130.192ZM152.467 130L149.693 120.182H152.052L153.778 127.085H153.867L155.631 120.182H157.964L159.729 127.047H159.824L161.525 120.182H163.89L161.109 130H158.699L156.858 123.365H156.724L154.883 130H152.467ZM53.8675 138.73C54.4044 138.734 54.9413 138.837 55.4782 139.037C56.0152 139.237 56.5052 139.57 56.9484 140.034C57.3916 140.494 57.7474 141.123 58.0159 141.92C58.2844 142.717 58.4186 143.716 58.4186 144.918C58.4186 146.081 58.3078 147.114 58.0862 148.018C57.8689 148.917 57.5535 149.675 57.1402 150.293C56.7311 150.911 56.2325 151.38 55.6444 151.7C55.0606 152.019 54.4001 152.179 53.6629 152.179C52.93 152.179 52.2758 152.034 51.7006 151.744C51.1295 151.45 50.6608 151.043 50.2943 150.523C49.9321 149.999 49.6998 149.392 49.5976 148.702H51.1572C51.2979 149.303 51.577 149.799 51.9946 150.191C52.4165 150.579 52.9726 150.773 53.6629 150.773C54.6729 150.773 55.4697 150.332 56.0535 149.45C56.6416 148.567 56.9356 147.321 56.9356 145.71H56.8334C56.5947 146.068 56.3113 146.377 55.9832 146.637C55.6551 146.897 55.2907 147.097 54.8902 147.238C54.4896 147.379 54.0635 147.449 53.6118 147.449C52.8618 147.449 52.1736 147.263 51.5471 146.893C50.925 146.518 50.4264 146.004 50.0514 145.352C49.6807 144.696 49.4953 143.946 49.4953 143.102C49.4953 142.301 49.6743 141.568 50.0322 140.903C50.3944 140.234 50.9015 139.702 51.5535 139.305C52.2098 138.909 52.9811 138.717 53.8675 138.73ZM53.8675 140.136C53.3305 140.136 52.8469 140.271 52.4165 140.539C51.9903 140.803 51.6515 141.161 51.4001 141.613C51.153 142.06 51.0294 142.557 51.0294 143.102C51.0294 143.648 51.1487 144.144 51.3873 144.592C51.6302 145.035 51.9605 145.388 52.3781 145.653C52.8 145.913 53.2794 146.043 53.8163 146.043C54.2211 146.043 54.5983 145.964 54.9477 145.806C55.2971 145.644 55.6018 145.425 55.8618 145.148C56.126 144.866 56.3327 144.549 56.4818 144.195C56.6309 143.837 56.7055 143.464 56.7055 143.077C56.7055 142.565 56.5819 142.086 56.3348 141.638C56.0919 141.191 55.7552 140.829 55.3248 140.552C54.8987 140.275 54.4129 140.136 53.8675 140.136ZM60.6254 149.315V148.011L66.3783 138.909H67.3243V140.929H66.6851L62.3385 147.807V147.909H70.0857V149.315H60.6254ZM66.7874 152V148.919V148.312V138.909H68.2959V152H66.7874ZM76.751 152.179C75.7879 152.179 74.9676 151.917 74.29 151.393C73.6125 150.864 73.0947 150.099 72.7368 149.098C72.3788 148.092 72.1998 146.878 72.1998 145.455C72.1998 144.04 72.3788 142.832 72.7368 141.83C73.099 140.825 73.6189 140.058 74.2964 139.529C74.9782 138.996 75.7964 138.73 76.751 138.73C77.7055 138.73 78.5216 138.996 79.1991 139.529C79.8809 140.058 80.4008 140.825 80.7588 141.83C81.121 142.832 81.3021 144.04 81.3021 145.455C81.3021 146.878 81.1231 148.092 80.7652 149.098C80.4072 150.099 79.8895 150.864 79.2119 151.393C78.5344 151.917 77.714 152.179 76.751 152.179ZM76.751 150.773C77.7055 150.773 78.447 150.312 78.9754 149.392C79.5038 148.472 79.768 147.159 79.768 145.455C79.768 144.321 79.6466 143.356 79.4037 142.559C79.165 141.762 78.8199 141.155 78.3682 140.737C77.9207 140.32 77.3817 140.111 76.751 140.111C75.805 140.111 75.0656 140.577 74.5329 141.511C74.0003 142.44 73.7339 143.754 73.7339 145.455C73.7339 146.588 73.8532 147.551 74.0919 148.344C74.3305 149.136 74.6736 149.739 75.121 150.153C75.5727 150.566 76.116 150.773 76.751 150.773ZM88.3845 138.295L84.1657 153.969H82.7851L87.0038 138.295H88.3845ZM90.1471 152V150.849L94.4681 146.119C94.9752 145.565 95.3928 145.084 95.721 144.675C96.0491 144.261 96.292 143.874 96.4497 143.511C96.6116 143.145 96.6926 142.761 96.6926 142.361C96.6926 141.901 96.5818 141.502 96.3602 141.165C96.1428 140.829 95.8445 140.569 95.4653 140.386C95.086 140.202 94.6599 140.111 94.1869 140.111C93.684 140.111 93.2451 140.215 92.8701 140.424C92.4994 140.629 92.2117 140.916 92.0072 141.287C91.8069 141.658 91.7068 142.092 91.7068 142.591H90.1982C90.1982 141.824 90.3751 141.151 90.7288 140.571C91.0825 139.991 91.564 139.54 92.1734 139.216C92.787 138.892 93.4752 138.73 94.238 138.73C95.0051 138.73 95.6847 138.892 96.2771 139.216C96.8694 139.54 97.3339 139.977 97.6705 140.526C98.0072 141.076 98.1755 141.688 98.1755 142.361C98.1755 142.842 98.0882 143.313 97.9134 143.773C97.743 144.229 97.4447 144.739 97.0186 145.301C96.5967 145.859 96.0107 146.541 95.2607 147.347L92.3204 150.491V150.594H98.4056V152H90.1471ZM101.455 152L107.31 140.418V140.315H100.56V138.909H108.946V140.392L103.117 152H101.455ZM115.317 152.179C114.354 152.179 113.534 151.917 112.856 151.393C112.179 150.864 111.661 150.099 111.303 149.098C110.945 148.092 110.766 146.878 110.766 145.455C110.766 144.04 110.945 142.832 111.303 141.83C111.665 140.825 112.185 140.058 112.863 139.529C113.545 138.996 114.363 138.73 115.317 138.73C116.272 138.73 117.088 138.996 117.766 139.529C118.447 140.058 118.967 140.825 119.325 141.83C119.687 142.832 119.869 144.04 119.869 145.455C119.869 146.878 119.69 148.092 119.332 149.098C118.974 150.099 118.456 150.864 117.778 151.393C117.101 151.917 116.28 152.179 115.317 152.179ZM115.317 150.773C116.272 150.773 117.013 150.312 117.542 149.392C118.07 148.472 118.334 147.159 118.334 145.455C118.334 144.321 118.213 143.356 117.97 142.559C117.731 141.762 117.386 141.155 116.935 140.737C116.487 140.32 115.948 140.111 115.317 140.111C114.371 140.111 113.632 140.577 113.099 141.511C112.567 142.44 112.3 143.754 112.3 145.455C112.3 146.588 112.42 147.551 112.658 148.344C112.897 149.136 113.24 149.739 113.687 150.153C114.139 150.566 114.682 150.773 115.317 150.773ZM122.323 155.682V142.182H123.78V143.741H123.959C124.07 143.571 124.224 143.354 124.42 143.089C124.62 142.821 124.905 142.582 125.276 142.374C125.651 142.161 126.158 142.054 126.797 142.054C127.624 142.054 128.353 142.261 128.984 142.674C129.614 143.087 130.106 143.673 130.46 144.432C130.814 145.19 130.991 146.085 130.991 147.116C130.991 148.156 130.814 149.058 130.46 149.82C130.106 150.579 129.616 151.167 128.99 151.585C128.364 151.998 127.641 152.205 126.823 152.205C126.192 152.205 125.687 152.1 125.308 151.891C124.929 151.678 124.637 151.437 124.432 151.169C124.228 150.896 124.07 150.67 123.959 150.491H123.832V155.682H122.323ZM123.806 147.091C123.806 147.832 123.915 148.487 124.132 149.053C124.349 149.616 124.667 150.057 125.084 150.376C125.502 150.692 126.013 150.849 126.619 150.849C127.249 150.849 127.775 150.683 128.197 150.351C128.623 150.014 128.943 149.562 129.156 148.996C129.373 148.425 129.482 147.79 129.482 147.091C129.482 146.401 129.376 145.778 129.163 145.224C128.954 144.666 128.636 144.225 128.21 143.901C127.788 143.573 127.258 143.409 126.619 143.409C126.005 143.409 125.489 143.565 125.072 143.876C124.654 144.183 124.339 144.613 124.126 145.167C123.913 145.717 123.806 146.358 123.806 147.091ZM134.013 142.182L136.365 146.196L138.717 142.182H140.456L137.285 147.091L140.456 152H138.717L136.365 148.19L134.013 152H132.274L135.393 147.091L132.274 142.182H134.013Z" fill="white"/>
</svg>
