<svg xmlns="http://www.w3.org/2000/svg" viewBox="0 0 173.17 131.32"><defs><style>.cls-1{fill:#ffb705;}</style></defs><title>Asset 1</title><g id="Layer_2" data-name="Layer 2"><g id="Layer_1-2" data-name="Layer 1"><path class="cls-1" d="M41.12,83.48H75.65v21.87H41.12a41.12,41.12,0,0,1,0-82.23H53.37V0l36.9,36.9L53.37,73.8V45H41.12a19.25,19.25,0,1,0,0,38.49Z"/><path class="cls-1" d="M173.17,64.25a41.12,41.12,0,0,1-41.11,41.1H119.79v26l-36.9-36.9,36.9-36.9v26h12.27a19.25,19.25,0,0,0,0-38.49H97.52V23.12h34.54A41.12,41.12,0,0,1,173.17,64.25Z"/></g></g></svg>