<svg width="77" height="76" viewBox="0 0 77 76" fill="none" xmlns="http://www.w3.org/2000/svg">
<circle cx="38.3975" cy="38" r="38" fill="#D9D9D9"/>
<path fill-rule="evenodd" clip-rule="evenodd" d="M42.7612 34.7273C42.7612 35.8846 42.3015 36.9945 41.4831 37.8128C40.6648 38.6312 39.5549 39.0909 38.3976 39.0909C37.2403 39.0909 36.1304 38.6312 35.312 37.8128C34.4937 36.9945 34.0339 35.8846 34.0339 34.7273C34.0339 33.57 34.4937 32.4601 35.312 31.6417C36.1304 30.8234 37.2403 30.3636 38.3976 30.3636C39.5549 30.3636 40.6648 30.8234 41.4831 31.6417C42.3015 32.4601 42.7612 33.57 42.7612 34.7273ZM40.5794 34.7273C40.5794 35.3059 40.3495 35.8609 39.9404 36.2701C39.5312 36.6792 38.9762 36.9091 38.3976 36.9091C37.8189 36.9091 37.264 36.6792 36.8548 36.2701C36.4456 35.8609 36.2158 35.3059 36.2158 34.7273C36.2158 34.1486 36.4456 33.5937 36.8548 33.1845C37.264 32.7753 37.8189 32.5455 38.3976 32.5455C38.9762 32.5455 39.5312 32.7753 39.9404 33.1845C40.3495 33.5937 40.5794 34.1486 40.5794 34.7273Z" fill="#343434"/>
<path fill-rule="evenodd" clip-rule="evenodd" d="M38.3975 26C31.7702 26 26.3975 31.3727 26.3975 38C26.3975 44.6273 31.7702 50 38.3975 50C45.0247 50 50.3975 44.6273 50.3975 38C50.3975 31.3727 45.0247 26 38.3975 26ZM28.5793 38C28.5793 40.28 29.3571 42.3789 30.6607 44.0458C31.5765 42.8438 32.7576 41.8696 34.112 41.1993C35.4663 40.5291 36.9572 40.1808 38.4684 40.1818C39.9601 40.1801 41.4324 40.519 42.7732 41.1728C44.114 41.8265 45.2878 42.7779 46.2051 43.9542C47.1503 42.7145 47.7867 41.2675 48.0617 39.733C48.3367 38.1985 48.2423 36.6206 47.7864 35.1298C47.3304 33.639 46.5261 32.2782 45.4398 31.16C44.3536 30.0418 43.0166 29.1984 41.5397 28.6995C40.0627 28.2005 38.4882 28.0605 36.9464 28.2909C35.4046 28.5213 33.9398 29.1155 32.6732 30.0244C31.4066 30.9333 30.3747 32.1308 29.6628 33.5177C28.9509 34.9046 28.5795 36.4411 28.5793 38ZM38.3975 47.8182C36.1435 47.8218 33.9576 47.0464 32.2098 45.6233C32.9133 44.6159 33.8497 43.7935 34.9394 43.226C36.0291 42.6584 37.2397 42.3626 38.4684 42.3636C39.6817 42.3626 40.8777 42.651 41.9571 43.2051C43.0365 43.7591 43.9681 44.5627 44.6746 45.5491C42.9132 47.0185 40.6913 47.8218 38.3975 47.8182Z" fill="#343434"/>
</svg>
