<svg xmlns="http://www.w3.org/2000/svg" viewBox="0 0 16 16"><defs><style>.cls-1{fill:#ffb705;}</style></defs><title>wAsset 1</title><g id="Layer_2" data-name="Layer 2"><g id="Layer_1-2" data-name="Layer 1"><circle cx="8" cy="8" r="8"/><path class="cls-1" d="M5.34,8.8H7.2V10H5.34a2.21,2.21,0,0,1-2.2-2.2,2.23,2.23,0,0,1,.64-1.56,2.2,2.2,0,0,1,1.56-.65H6V4.32l2,2-2,2V6.73H5.34a1,1,0,0,0,0,2.07Z"/><path class="cls-1" d="M12.43,7.77a2.2,2.2,0,0,1-.65,1.56,2.23,2.23,0,0,1-1.56.64H9.56v1.39l-2-2,2-2V8.8h.66A1.05,1.05,0,0,0,11,8.5a1,1,0,0,0-.73-1.77H8.37V5.56h1.85A2.21,2.21,0,0,1,12.43,7.77Z"/></g></g></svg>