<svg width="5" height="8" viewBox="0 0 5 8" fill="none" xmlns="http://www.w3.org/2000/svg">
<path d="M2.52813 0.00683594C1.17362 0.00683594 0.078125 1.10298 0.078125 2.45829C0.078125 4.29688 2.52813 7.01098 2.52813 7.01098C2.52813 7.01098 4.97813 4.29688 4.97813 2.45829C4.97813 1.10298 3.88262 0.00683594 2.52813 0.00683594ZM2.52813 3.33381C2.29606 3.33381 2.0735 3.24156 1.90941 3.07737C1.74531 2.91318 1.65312 2.69049 1.65312 2.45829C1.65312 2.22608 1.74531 2.00339 1.90941 1.8392C2.0735 1.67501 2.29606 1.58277 2.52813 1.58277C2.76019 1.58277 2.98275 1.67501 3.14684 1.8392C3.31094 2.00339 3.40313 2.22608 3.40313 2.45829C3.40313 2.69049 3.31094 2.91318 3.14684 3.07737C2.98275 3.24156 2.76019 3.33381 2.52813 3.33381Z" fill="#FEAE42"/>
</svg>
