<svg width="26" height="26" viewBox="0 0 26 26" fill="none" xmlns="http://www.w3.org/2000/svg">
<path d="M21.2291 9C23.6399 9 25.601 7.0375 25.601 4.625C25.601 2.2125 23.6399 0.25 21.2291 0.25C18.8183 0.25 16.8571 2.2125 16.8571 4.625C16.8571 7.0375 18.8183 9 21.2291 9ZM23.1028 19V11.2375C22.4782 11.4125 21.8537 11.5 21.2291 11.5H20.6045V19C20.6045 21.075 18.9307 22.75 16.8571 22.75H6.86407C4.79051 22.75 3.11667 21.075 3.11667 19V9C3.11667 6.925 4.79051 5.25 6.86407 5.25H14.3589V4.625C14.3589 4 14.4463 3.375 14.6212 2.75H6.86407C3.41646 2.75 0.618408 5.55 0.618408 9V19C0.618408 22.45 3.41646 25.25 6.86407 25.25H16.8571C20.3047 25.25 23.1028 22.45 23.1028 19Z" fill="#343434"/>
</svg>
