<svg width="22" height="22" viewBox="0 0 22 22" fill="none" xmlns="http://www.w3.org/2000/svg">
<path d="M7.58626 7.23594L10.1843 2.00394C10.2599 1.85253 10.3762 1.72517 10.5202 1.63616C10.6641 1.54715 10.83 1.5 10.9993 1.5C11.1685 1.5 11.3344 1.54715 11.4784 1.63616C11.6223 1.72517 11.7386 1.85253 11.8143 2.00394L14.4123 7.23594L20.2203 8.07994C20.3878 8.10317 20.5454 8.17303 20.6751 8.28155C20.8049 8.39007 20.9015 8.53288 20.9539 8.69367C21.0064 8.85446 21.0125 9.02676 20.9718 9.19089C20.931 9.35503 20.8449 9.5044 20.7233 9.62194L16.5213 13.6919L17.5133 19.4419C17.6403 20.1799 16.8603 20.7419 16.1933 20.3939L10.9993 17.6779L5.80426 20.3939C5.13826 20.7429 4.35826 20.1799 4.48526 19.4409L5.47726 13.6909L1.27526 9.62094C1.15425 9.50332 1.06866 9.3541 1.02823 9.19026C0.987792 9.02641 0.994134 8.85451 1.04653 8.69409C1.09893 8.53367 1.19528 8.39116 1.32463 8.28277C1.45398 8.17439 1.61115 8.10446 1.77826 8.08094L7.58626 7.23594Z" stroke="#7B7B7B" stroke-width="1.5" stroke-linecap="round" stroke-linejoin="round"/>
</svg>
