<svg width="22" height="22" viewBox="0 0 22 22" fill="none" xmlns="http://www.w3.org/2000/svg">
<path d="M20.845 21.5931C21.2592 21.5931 21.595 21.2573 21.595 20.8431C21.595 20.4289 21.2592 20.0931 20.845 20.0931V21.5931ZM0.844971 20.0931C0.430757 20.0931 0.0949707 20.4289 0.0949707 20.8431C0.0949707 21.2573 0.430757 21.5931 0.844971 21.5931V20.0931ZM18.095 20.8431C18.095 21.2573 18.4308 21.5931 18.845 21.5931C19.2592 21.5931 19.595 21.2573 19.595 20.8431H18.095ZM19.595 9.84308C19.595 9.42887 19.2592 9.09308 18.845 9.09308C18.4308 9.09308 18.095 9.42887 18.095 9.84308H19.595ZM2.09497 20.8431C2.09497 21.2573 2.43076 21.5931 2.84497 21.5931C3.25918 21.5931 3.59497 21.2573 3.59497 20.8431H2.09497ZM3.59497 9.84308C3.59497 9.42887 3.25918 9.09308 2.84497 9.09308C2.43076 9.09308 2.09497 9.42887 2.09497 9.84308H3.59497ZM4.02997 1.14208L4.42319 1.78073L4.42474 1.77978L4.02997 1.14208ZM2.73997 3.05408L2.0689 2.71917C2.0593 2.7384 2.05054 2.75803 2.04263 2.77801L2.73997 3.05408ZM1.33497 6.60308L0.637628 6.32701L0.637446 6.32747L1.33497 6.60308ZM1.27297 9.08208L1.86247 8.61841L1.86209 8.61792L1.27297 9.08208ZM4.84497 7.84308L5.59497 7.84212C5.59444 7.4281 5.25852 7.09281 4.84449 7.09308C4.43047 7.09334 4.09497 7.42905 4.09497 7.84308L4.84497 7.84308ZM9.59497 7.84308C9.59497 7.42887 9.25918 7.09308 8.84497 7.09308C8.43076 7.09308 8.09497 7.42887 8.09497 7.84308H9.59497ZM13.595 7.84308C13.595 7.42887 13.2592 7.09308 12.845 7.09308C12.4308 7.09308 12.095 7.42887 12.095 7.84308H13.595ZM16.845 7.84308H17.595C17.595 7.42889 17.2592 7.09311 16.845 7.09308C16.4308 7.09305 16.095 7.42878 16.095 7.84297L16.845 7.84308ZM20.416 9.08108L19.8269 8.61692L19.8268 8.61693L20.416 9.08108ZM20.354 6.60208L21.0515 6.32647L21.0514 6.32611L20.354 6.60208ZM18.95 3.05408L19.6474 2.77811C19.6394 2.7581 19.6307 2.73843 19.621 2.71917L18.95 3.05408ZM17.66 1.14208L17.2652 1.77978L17.2668 1.78073L17.66 1.14208ZM7.59497 20.3431C7.59497 20.7573 7.93076 21.0931 8.34497 21.0931C8.75918 21.0931 9.09497 20.7573 9.09497 20.3431H7.59497ZM8.54597 15.5931L9.19542 15.9682L9.19548 15.9681L8.54597 15.5931ZM9.09497 15.0441L9.46998 15.6936L9.47009 15.6935L9.09497 15.0441ZM12.595 15.0441L12.2199 15.6935L12.22 15.6936L12.595 15.0441ZM13.144 15.5931L12.4945 15.9681L12.4945 15.9682L13.144 15.5931ZM12.595 20.3431C12.595 20.7573 12.9308 21.0931 13.345 21.0931C13.7592 21.0931 14.095 20.7573 14.095 20.3431H12.595ZM20.845 20.0931H0.844971V21.5931H20.845V20.0931ZM19.595 20.8431V9.84308H18.095V20.8431H19.595ZM3.59497 20.8431V9.84308H2.09497V20.8431H3.59497ZM15.373 0.0930786H6.31697V1.59308H15.373V0.0930786ZM6.31697 0.0930786C5.7309 0.0930786 5.23471 0.0921511 4.82623 0.134441C4.40041 0.178528 4.00691 0.274275 3.6352 0.50438L4.42474 1.77978C4.53603 1.71088 4.68454 1.65713 4.98071 1.62647C5.29423 1.59401 5.70005 1.59308 6.31697 1.59308V0.0930786ZM3.63675 0.503426C3.2641 0.73287 3.00209 1.04223 2.77209 1.40369C2.55146 1.75041 2.33056 2.19487 2.0689 2.71917L3.41104 3.38899C3.68638 2.83728 3.86848 2.47475 4.0376 2.20897C4.19735 1.95792 4.31185 1.84929 4.42319 1.78073L3.63675 0.503426ZM2.04263 2.77801L0.637628 6.32701L2.03231 6.87915L3.43731 3.33015L2.04263 2.77801ZM0.637446 6.32747C0.470667 6.74957 0.285609 7.27626 0.231475 7.81525C0.176095 8.36666 0.252056 8.99818 0.683852 9.54623L1.86209 8.61792C1.74789 8.47297 1.69285 8.275 1.72397 7.96515C1.75633 7.6429 1.87527 7.27659 2.0325 6.87869L0.637446 6.32747ZM0.68347 9.54575C1.03714 9.9954 1.52225 10.3236 2.07122 10.4845L2.49326 9.04513C2.24373 8.97196 2.02323 8.8228 1.86247 8.61841L0.68347 9.54575ZM2.07122 10.4845C2.62018 10.6455 3.20569 10.6312 3.74617 10.4438L3.25461 9.0266C3.00893 9.11182 2.7428 9.11829 2.49326 9.04513L2.07122 10.4845ZM3.74617 10.4438C4.28666 10.2563 4.75523 9.90492 5.08661 9.4386L3.8639 8.5697C3.71327 8.78167 3.50029 8.94138 3.25461 9.0266L3.74617 10.4438ZM5.08661 9.4386C5.418 8.97227 5.5957 8.4142 5.59497 7.84212L4.09497 7.84403C4.0953 8.10407 4.01453 8.35774 3.8639 8.5697L5.08661 9.4386ZM4.09497 7.84308C4.09497 8.57242 4.3847 9.2719 4.90043 9.78762L5.96109 8.72696C5.72667 8.49254 5.59497 8.1746 5.59497 7.84308L4.09497 7.84308ZM4.90043 9.78762C5.41615 10.3033 6.11563 10.5931 6.84497 10.5931V9.09308C6.51345 9.09308 6.19551 8.96138 5.96109 8.72696L4.90043 9.78762ZM6.84497 10.5931C7.57432 10.5931 8.27379 10.3033 8.78951 9.78762L7.72885 8.72696C7.49443 8.96138 7.17649 9.09308 6.84497 9.09308V10.5931ZM8.78951 9.78762C9.30524 9.2719 9.59497 8.57242 9.59497 7.84308H8.09497C8.09497 8.1746 7.96327 8.49254 7.72885 8.72696L8.78951 9.78762ZM8.09497 7.84308C8.09497 8.57242 8.3847 9.2719 8.90043 9.78762L9.96109 8.72696C9.72667 8.49254 9.59497 8.1746 9.59497 7.84308H8.09497ZM8.90043 9.78762C9.41615 10.3033 10.1156 10.5931 10.845 10.5931V9.09308C10.5135 9.09308 10.1955 8.96138 9.96109 8.72696L8.90043 9.78762ZM10.845 10.5931C11.5743 10.5931 12.2738 10.3033 12.7895 9.78762L11.7289 8.72696C11.4944 8.96138 11.1765 9.09308 10.845 9.09308V10.5931ZM12.7895 9.78762C13.3052 9.2719 13.595 8.57242 13.595 7.84308H12.095C12.095 8.1746 11.9633 8.49254 11.7289 8.72696L12.7895 9.78762ZM12.095 7.84308C12.095 8.57242 12.3847 9.2719 12.9004 9.78762L13.9611 8.72696C13.7267 8.49254 13.595 8.1746 13.595 7.84308H12.095ZM12.9004 9.78762C13.4162 10.3033 14.1156 10.5931 14.845 10.5931V9.09308C14.5135 9.09308 14.1955 8.96138 13.9611 8.72696L12.9004 9.78762ZM14.845 10.5931C15.5743 10.5931 16.2738 10.3033 16.7895 9.78762L15.7289 8.72696C15.4944 8.96138 15.1765 9.09308 14.845 9.09308V10.5931ZM16.7895 9.78762C17.3052 9.2719 17.595 8.57242 17.595 7.84308H16.095C16.095 8.1746 15.9633 8.49254 15.7289 8.72696L16.7895 9.78762ZM16.095 7.84297C16.0949 8.4146 16.2729 8.97204 16.6044 9.43778L17.8265 8.56809C17.6759 8.35639 17.5949 8.10301 17.595 7.84318L16.095 7.84297ZM16.6044 9.43778C16.9358 9.90352 17.4041 10.2544 17.9442 10.4416L18.4355 9.0244C18.19 8.93929 17.9772 8.77979 17.8265 8.56809L16.6044 9.43778ZM17.9442 10.4416C18.4843 10.6289 19.0693 10.6432 19.6179 10.4825L19.1963 9.04297C18.9469 9.116 18.681 9.1095 18.4355 9.0244L17.9442 10.4416ZM19.6179 10.4825C20.1665 10.3218 20.6513 9.99423 21.0051 9.54522L19.8268 8.61693C19.666 8.82103 19.4456 8.96994 19.1963 9.04297L19.6179 10.4825ZM21.0051 9.54523C21.4369 8.99718 21.5128 8.36566 21.4575 7.81425C21.4033 7.27526 21.2183 6.74857 21.0515 6.32647L19.6564 6.87769C19.8137 7.27559 19.9326 7.6419 19.965 7.96415C19.9961 8.274 19.9411 8.47197 19.8269 8.61692L21.0051 9.54523ZM21.0514 6.32611L19.6474 2.77811L18.2526 3.33004L19.6566 6.87804L21.0514 6.32611ZM19.621 2.71917C19.3594 2.19487 19.1385 1.75041 18.9179 1.40369C18.6879 1.04224 18.4258 0.73287 18.0532 0.503426L17.2668 1.78073C17.3781 1.84929 17.4926 1.95792 17.6523 2.20897C17.8215 2.47474 18.0036 2.83728 18.2789 3.38899L19.621 2.71917ZM18.0547 0.50438C17.683 0.274275 17.2895 0.178528 16.8637 0.134441C16.4552 0.0921511 15.959 0.0930786 15.373 0.0930786V1.59308C15.9899 1.59308 16.3957 1.59401 16.7092 1.62647C17.0054 1.65713 17.1539 1.71088 17.2652 1.77978L18.0547 0.50438ZM9.09497 20.3431V17.3431H7.59497V20.3431H9.09497ZM9.09497 17.3431C9.09497 16.8618 9.09569 16.5511 9.11703 16.3157C9.13744 16.0906 9.17185 16.009 9.19542 15.9682L7.89652 15.218C7.71909 15.5251 7.65301 15.851 7.62316 16.1802C7.59425 16.4991 7.59497 16.8894 7.59497 17.3431H9.09497ZM9.19548 15.9681C9.26131 15.8541 9.35598 15.7594 9.46998 15.6936L8.71996 14.3946C8.37794 14.592 8.09393 14.8761 7.89646 15.2181L9.19548 15.9681ZM9.47009 15.6935C9.5109 15.67 9.59252 15.6355 9.81757 15.6151C10.053 15.5938 10.3637 15.5931 10.845 15.5931V14.0931C10.3913 14.0931 10.001 14.0924 9.68213 14.1213C9.35292 14.1511 9.02704 14.2172 8.71986 14.3946L9.47009 15.6935ZM10.845 15.5931C11.3263 15.5931 11.637 15.5938 11.8724 15.6151C12.0974 15.6355 12.179 15.67 12.2199 15.6935L12.9701 14.3946C12.6629 14.2172 12.337 14.1511 12.0078 14.1213C11.689 14.0924 11.2987 14.0931 10.845 14.0931V15.5931ZM12.22 15.6936C12.334 15.7594 12.4286 15.8541 12.4945 15.9681L13.7935 15.2181C13.596 14.8761 13.312 14.592 12.97 14.3946L12.22 15.6936ZM12.4945 15.9682C12.5181 16.009 12.5525 16.0906 12.5729 16.3157C12.5943 16.5511 12.595 16.8618 12.595 17.3431H14.095C14.095 16.8894 14.0957 16.4991 14.0668 16.1802C14.0369 15.851 13.9708 15.5251 13.7934 15.218L12.4945 15.9682ZM12.595 17.3431V20.3431H14.095V17.3431H12.595Z" fill="black"/>
</svg>
