<svg width="29" height="29" viewBox="0 0 29 29" fill="none" xmlns="http://www.w3.org/2000/svg">
<path d="M25.0475 27.1958H3.7244C3.23871 27.1958 2.83594 26.7931 2.83594 26.3074C2.83594 25.8217 3.23871 25.4189 3.7244 25.4189H25.0475C25.5332 25.4189 25.9359 25.8217 25.9359 26.3074C25.9359 26.7931 25.5332 27.1958 25.0475 27.1958Z" fill="#7B7B7B"/>
<path d="M6.80438 23.6424H4.90901C3.77178 23.6424 2.83594 22.7065 2.83594 21.5693V11.3579C2.83594 10.2207 3.77178 9.28481 4.90901 9.28481H6.80438C7.94161 9.28481 8.87745 10.2207 8.87745 11.3579V21.5693C8.87745 22.7065 7.94161 23.6424 6.80438 23.6424ZM4.90901 11.0499C4.74317 11.0499 4.61286 11.1802 4.61286 11.346V21.5693C4.61286 21.7351 4.74317 21.8654 4.90901 21.8654H6.80438C6.97022 21.8654 7.10053 21.7351 7.10053 21.5693V11.3579C7.10053 11.192 6.97022 11.0617 6.80438 11.0617H4.90901V11.0499Z" fill="#7B7B7B"/>
<path d="M15.3327 23.6418H13.4373C12.3001 23.6418 11.3643 22.7059 11.3643 21.5687V7.57844C11.3643 6.44121 12.3001 5.50536 13.4373 5.50536H15.3327C16.47 5.50536 17.4058 6.44121 17.4058 7.57844V21.5687C17.4058 22.7059 16.47 23.6418 15.3327 23.6418ZM13.4373 7.28229C13.2715 7.28229 13.1412 7.41259 13.1412 7.57844V21.5687C13.1412 21.7345 13.2715 21.8649 13.4373 21.8649H15.3327C15.4986 21.8649 15.6289 21.7345 15.6289 21.5687V7.57844C15.6289 7.41259 15.4986 7.28229 15.3327 7.28229H13.4373Z" fill="#7B7B7B"/>
<path d="M23.863 23.6426H21.9676C20.8304 23.6426 19.8945 22.7068 19.8945 21.5695V3.80032C19.8945 2.66309 20.8304 1.72724 21.9676 1.72724H23.863C25.0002 1.72724 25.9361 2.66309 25.9361 3.80032V21.5695C25.9361 22.7068 25.0002 23.6426 23.863 23.6426ZM21.9676 3.50416C21.8018 3.50416 21.6715 3.63447 21.6715 3.80032V21.5695C21.6715 21.7354 21.8018 21.8657 21.9676 21.8657H23.863C24.0288 21.8657 24.1591 21.7354 24.1591 21.5695V3.80032C24.1591 3.63447 24.0288 3.50416 23.863 3.50416H21.9676Z" fill="#7B7B7B"/>
</svg>
