<svg width="8" height="10" viewBox="0 0 8 10" fill="none" xmlns="http://www.w3.org/2000/svg">
<path d="M3.58789 8.0667L1.79237 6.2706L1.79236 6.27059C1.71492 6.19316 1.6099 6.14966 1.50039 6.14966C1.39089 6.14966 1.28587 6.19316 1.20843 6.27059C1.131 6.34802 1.0875 6.45305 1.0875 6.56255C1.0875 6.61677 1.09818 6.67047 1.11893 6.72056C1.13968 6.77065 1.17009 6.81617 1.20843 6.85451L3.70834 9.35442L3.70843 9.35451L3.77914 9.2838C3.80817 9.3129 3.84266 9.33599 3.88062 9.35175C3.91859 9.3675 3.95929 9.37561 4.00039 9.37561C4.0415 9.37561 4.0822 9.3675 4.12017 9.35175C4.15813 9.33599 4.19262 9.3129 4.22164 9.2838L3.58789 8.0667ZM3.58789 8.0667V0.937551C3.58789 0.82815 3.63136 0.723228 3.70871 0.645869C3.78607 0.568511 3.89099 0.525051 4.00039 0.525051C4.1098 0.525051 4.21472 0.568511 4.29208 0.645869C4.36944 0.723228 4.41289 0.82815 4.41289 0.937551V8.0667H3.58789Z" fill="#FF0000" stroke="#FF0000" stroke-width="0.2"/>
</svg>
