<svg width="8" height="10" viewBox="0 0 8 10" fill="none" xmlns="http://www.w3.org/2000/svg">
<path d="M3.58789 1.9333L1.79237 3.7294L1.79236 3.72941C1.71492 3.80684 1.6099 3.85034 1.50039 3.85034C1.39089 3.85034 1.28587 3.80684 1.20843 3.72941C1.131 3.65198 1.0875 3.54695 1.0875 3.43745C1.0875 3.38323 1.09818 3.32953 1.11893 3.27944C1.13968 3.22935 1.17009 3.18383 1.20843 3.14549L3.70834 0.645577L3.70843 0.645488L3.77914 0.716198C3.80817 0.687096 3.84266 0.664007 3.88062 0.648253C3.91859 0.632499 3.95929 0.62439 4.00039 0.62439C4.0415 0.62439 4.0822 0.632499 4.12017 0.648253C4.15813 0.664007 4.19262 0.687096 4.22164 0.716198L3.58789 1.9333ZM3.58789 1.9333V9.06245C3.58789 9.17185 3.63136 9.27677 3.70871 9.35413C3.78607 9.43149 3.89099 9.47495 4.00039 9.47495C4.1098 9.47495 4.21472 9.43149 4.29208 9.35413C4.36944 9.27677 4.41289 9.17185 4.41289 9.06245V1.9333H3.58789Z" fill="black" stroke="black" stroke-width="0.2"/>
</svg>
