<svg xmlns="http://www.w3.org/2000/svg" viewBox="0 0 39.98 40.04"><defs><style>.cls-1{fill:#ffcf2b;}.cls-2,.cls-4{fill:none;}.cls-2,.cls-3,.cls-4,.cls-7,.cls-8,.cls-9{stroke:#1d1713;stroke-linecap:round;}.cls-2{stroke-linejoin:round;}.cls-3,.cls-7{fill:#8d7f8d;}.cls-3,.cls-4,.cls-7,.cls-8,.cls-9{stroke-miterlimit:10;}.cls-5,.cls-6{fill:#1d1713;}.cls-6{font-size:4.44px;font-family:Poppins-SemiBold, Poppins;font-weight:600;}.cls-7,.cls-8,.cls-9{stroke-width:0.5px;}.cls-8{fill:#fff;}.cls-9{fill:#ed1c24;}</style></defs><title>Asset 3</title><g id="Layer_2" data-name="Layer 2"><g id="Layer_1-2" data-name="Layer 1"><path class="cls-1" d="M33,6V30a3.42,3.42,0,0,1-.09.79,1.82,1.82,0,0,1-.07.25,2.05,2.05,0,0,1-.16.41,2.91,2.91,0,0,1-.27.49,3.12,3.12,0,0,1-.67.73,3.46,3.46,0,0,1-2.2.79h-26a3.76,3.76,0,0,1-1.34-.26h0a3.34,3.34,0,0,1-.85-.52l-.24-.22a3.3,3.3,0,0,1-.6-.79A4.26,4.26,0,0,1,.22,31h0a3.11,3.11,0,0,1-.16-1V4a3.11,3.11,0,0,1,.16-1A3.47,3.47,0,0,0,.07,4V6Z"/><path class="cls-2" d="M.5,25.6V30a3.47,3.47,0,0,0,.15,1h0a4.26,4.26,0,0,0,.26.62,3.3,3.3,0,0,0,.6.79l.24.22a3.24,3.24,0,0,0,.85.52h0A3.52,3.52,0,0,0,4,33.45H30a3.41,3.41,0,0,0,2.19-.8,3.12,3.12,0,0,0,.67-.73,2.34,2.34,0,0,0,.27-.49,2.05,2.05,0,0,0,.16-.41,1.82,1.82,0,0,0,.07-.25,3.42,3.42,0,0,0,.09-.79V6"/><path class="cls-2" d="M2.6.77a3.24,3.24,0,0,0-.85.52"/><line class="cls-2" x1="0.5" y1="21.99" x2="0.5" y2="6.01"/><path class="cls-3" d="M25.57,6H.5V4a3.47,3.47,0,0,1,.15-1h0A4.26,4.26,0,0,1,.91,2.3a3.3,3.3,0,0,1,.6-.79l.24-.22A3.34,3.34,0,0,1,2.6.77h0A3.76,3.76,0,0,1,4,.5H30a3.46,3.46,0,0,1,2.2.79,3.12,3.12,0,0,1,.67.73,2.91,2.91,0,0,1,.27.49,2.05,2.05,0,0,1,.16.41,1.82,1.82,0,0,1,.07.25,3.42,3.42,0,0,1,.09.79V6H29.57"/><path class="cls-4" d="M18.82,13.74s1.7,1.42,2.85,1.42a4.1,4.1,0,0,0,2.85-1.42"/><path class="cls-4" d="M9,13.74s1.7,1.42,2.85,1.42a4.12,4.12,0,0,0,2.85-1.42"/><circle class="cls-5" cx="16.75" cy="18.35" r="0.92"/><text class="cls-6" transform="translate(12.38 24.94)">404</text><rect class="cls-7" x="35.03" y="32.61" width="2.95" height="7.91" rx="1.48" transform="translate(-15.16 36.52) rotate(-45)"/><circle class="cls-7" cx="30.94" cy="30.58" r="5.57"/><circle class="cls-8" cx="30.94" cy="30.58" r="3.94"/><path class="cls-9" d="M32.69,31.92l-.41.41a.36.36,0,0,1-.49,0l-.61-.61a.34.34,0,0,0-.49,0l-.61.61a.36.36,0,0,1-.49,0l-.41-.41a.36.36,0,0,1,0-.49l.62-.61a.36.36,0,0,0,0-.49l-.61-.61a.34.34,0,0,1,0-.49l.4-.4a.34.34,0,0,1,.49,0l.61.6a.34.34,0,0,0,.49,0l.61-.61a.36.36,0,0,1,.49,0l.41.41a.36.36,0,0,1,0,.49l-.61.61a.34.34,0,0,0,0,.49l.61.61A.36.36,0,0,1,32.69,31.92Z"/></g></g></svg>