<svg width="42" height="38" viewBox="0 0 42 38" fill="none" xmlns="http://www.w3.org/2000/svg">
<path d="M3.7888 37.8882C2.75762 37.8882 1.87456 37.5208 1.13961 36.7858C0.404665 36.0509 0.0378158 35.1684 0.0390657 34.1385V11.6401C0.0390657 10.6089 0.40654 9.72585 1.14149 8.9909C1.87644 8.25595 2.75887 7.8891 3.7888 7.89035H9.69463L13.1631 4.14062H24.4123V11.6401H30.0369V17.2647H37.5364V34.1385C37.5364 35.1697 37.1689 36.0527 36.434 36.7877C35.6991 37.5226 34.8166 37.8895 33.7867 37.8882H3.7888ZM18.7877 31.3262C21.1313 31.3262 23.1237 30.5056 24.7648 28.8645C26.406 27.2234 27.2259 25.2316 27.2246 22.8893C27.2246 20.5457 26.4041 18.5534 24.7629 16.9122C23.1218 15.2711 21.1301 14.4511 18.7877 14.4524C16.4442 14.4524 14.4518 15.273 12.8107 16.9141C11.1695 18.5552 10.3496 20.547 10.3508 22.8893C10.3508 25.2329 11.1714 27.2252 12.8125 28.8664C14.4537 30.5075 16.4454 31.3274 18.7877 31.3262ZM18.7877 27.5765C17.4753 27.5765 16.366 27.1234 15.4599 26.2172C14.5537 25.311 14.1006 24.2017 14.1006 22.8893C14.1006 21.5769 14.5537 20.4676 15.4599 19.5614C16.366 18.6552 17.4753 18.2021 18.7877 18.2021C20.1001 18.2021 21.2094 18.6552 22.1156 19.5614C23.0218 20.4676 23.4749 21.5769 23.4749 22.8893C23.4749 24.2017 23.0218 25.311 22.1156 26.2172C21.2094 27.1234 20.1001 27.5765 18.7877 27.5765ZM33.7867 11.6401V7.89035H30.0369V4.14062H33.7867V0.390884H37.5364V4.14062H41.2862V7.89035H37.5364V11.6401H33.7867Z" fill="#979797"/>
</svg>
