<svg width="20" height="20" viewBox="0 0 20 20" fill="none" xmlns="http://www.w3.org/2000/svg">
<path d="M6.78391 2.826C6.9088 2.57768 7.10023 2.36896 7.33685 2.2231C7.57346 2.07725 7.84595 2.00001 8.12391 2H11.8879C12.1666 2.00001 12.4398 2.07767 12.6769 2.22428C12.9139 2.37088 13.1054 2.58063 13.2299 2.83L13.8149 4H15.5049C16.1679 4 16.8038 4.26339 17.2727 4.73223C17.7415 5.20107 18.0049 5.83696 18.0049 6.5V8.695C17.7121 8.44367 17.3722 8.25328 17.0049 8.135V6.5C17.0049 6.10218 16.8469 5.72064 16.5656 5.43934C16.2843 5.15804 15.9027 5 15.5049 5H13.5049C13.4123 4.99981 13.3216 4.97391 13.2428 4.92517C13.1641 4.87644 13.1004 4.8068 13.0589 4.724L12.3359 3.277C12.2944 3.19371 12.2305 3.12366 12.1513 3.07473C12.0722 3.02579 11.981 2.99991 11.8879 3H8.12391C8.03123 2.99991 7.94036 3.02558 7.86143 3.07414C7.78249 3.1227 7.71861 3.19224 7.67691 3.275L6.94891 4.724C6.90728 4.80661 6.84355 4.87605 6.76481 4.9246C6.68607 4.97315 6.59541 4.9989 6.50291 4.999H4.50491C4.10708 4.999 3.72555 5.15704 3.44425 5.43834C3.16294 5.71964 3.00491 6.10118 3.00491 6.499V14.5C3.00491 14.8978 3.16294 15.2794 3.44425 15.5607C3.72555 15.842 4.10708 16 4.50491 16H8.22091L8.05791 16.653C8.02857 16.7703 8.01057 16.886 8.00391 17H4.50391C3.84086 17 3.20498 16.7366 2.73614 16.2678C2.2673 15.7989 2.00391 15.163 2.00391 14.5V6.5C2.00391 5.83696 2.2673 5.20107 2.73614 4.73223C3.20498 4.26339 3.84086 4 4.50391 4H6.19391L6.78391 2.826ZM13.8879 9.056C13.6536 8.10833 13.081 7.27898 12.2779 6.72404C11.4748 6.16909 10.4965 5.92682 9.52726 6.04284C8.55799 6.15885 7.66454 6.62514 7.01507 7.35395C6.36561 8.08275 6.00493 9.02381 6.00091 10C6.00091 11.89 7.31091 13.473 9.07291 13.892C9.13649 13.8147 9.20391 13.7406 9.27491 13.67L9.94491 13C9.35648 12.9889 8.78431 12.805 8.29964 12.4711C7.81497 12.1373 7.43919 11.6682 7.21911 11.1224C6.99902 10.5766 6.94434 9.97808 7.06187 9.40141C7.17941 8.82473 7.46396 8.29537 7.88012 7.87921C8.29627 7.46306 8.82564 7.1785 9.40231 7.06097C9.97899 6.94343 10.5775 6.99811 11.1233 7.2182C11.6692 7.43829 12.1382 7.81406 12.472 8.29873C12.8059 8.78341 12.9898 9.35558 13.0009 9.944L13.8879 9.056ZM14.8099 9.548L9.97991 14.378C9.69889 14.6596 9.49948 15.0121 9.40291 15.398L9.02791 16.896C8.99092 17.045 8.99311 17.201 9.03424 17.3489C9.07538 17.4968 9.15406 17.6315 9.26266 17.74C9.37126 17.8485 9.50607 17.9271 9.654 17.9681C9.80193 18.0091 9.95795 18.0111 10.1069 17.974L11.6049 17.6C11.9909 17.5031 12.3434 17.3034 12.6249 17.022L17.4549 12.192C17.801 11.8403 17.9942 11.3661 17.9922 10.8726C17.9901 10.3792 17.7932 9.90656 17.4442 9.5577C17.0952 9.20885 16.6225 9.01207 16.1291 9.01026C15.6356 9.00844 15.1615 9.20173 14.8099 9.548Z" fill="black"/>
</svg>
