<svg width="39" height="39" viewBox="0 0 39 39" fill="none" xmlns="http://www.w3.org/2000/svg">
<path d="M19.3791 21.4994L13.1752 27.7033L11.3069 25.8349L17.5108 19.631L17.8643 19.2775L17.5108 18.9239L11.3069 12.72L13.1752 10.8516L19.3791 17.0555L19.7327 17.4091L20.0862 17.0555L26.2901 10.8516L28.1585 12.72L21.9546 18.9239L21.6011 19.2775L21.9546 19.631L28.1585 25.8349L26.2901 27.7033L20.0862 21.4994L19.7327 21.1458L19.3791 21.4994ZM19.7327 0.511566C9.35551 0.511566 0.966797 8.90028 0.966797 19.2775C0.966797 29.6546 9.35551 38.0434 19.7327 38.0434C30.1099 38.0434 38.4986 29.6546 38.4986 19.2775C38.4986 8.90028 30.1099 0.511566 19.7327 0.511566Z" fill="black" stroke="white"/>
</svg>
