<svg width="26" height="16" viewBox="0 0 26 16" fill="none" xmlns="http://www.w3.org/2000/svg">
<path d="M1 12.7824L1.36364 12.745C1.72727 12.7077 2.45455 12.6329 3.18182 12.8933C3.90909 13.1537 4.63636 13.7492 5.36364 14.1744C6.09091 14.5997 6.81818 14.8547 7.54545 14.3536C8.27273 13.8525 9 12.5953 9.72727 12.7891C10.4545 12.9828 11.1818 14.6275 11.9091 12.7526C12.6364 10.8777 13.3636 5.48309 14.0909 2.95851C14.8182 0.433931 15.5455 0.779336 16.2727 3.15492C17 5.5305 17.7273 9.93625 18.4545 9.94185C19.1818 9.94744 19.9091 5.55288 20.6364 4.4637C21.3636 3.37452 22.0909 5.59073 22.8182 5.56435C23.5455 5.53796 24.2727 3.26898 24.6364 2.13449L25 1" stroke="#1A2B88" stroke-width="2" stroke-linecap="round"/>
</svg>
