<svg width="20" height="15" viewBox="0 0 20 15" fill="none" xmlns="http://www.w3.org/2000/svg">
<path d="M18.125 15H1.875C0.8375 15 0 14.1625 0 13.125V1.875C0 0.8375 0.8375 0 1.875 0H18.125C19.1625 0 20 0.8375 20 1.875V13.125C20 14.1625 19.1625 15 18.125 15ZM1.875 1.25C1.525 1.25 1.25 1.525 1.25 1.875V13.125C1.25 13.475 1.525 13.75 1.875 13.75H18.125C18.475 13.75 18.75 13.475 18.75 13.125V1.875C18.75 1.525 18.475 1.25 18.125 1.25H1.875Z" fill="#7E7E7E"/>
<path d="M10 9.95C9.125 9.95 8.325 9.6 7.725 8.9625L1.1625 1.9875C0.925 1.7375 0.9375 1.3375 1.1875 1.1C1.4375 0.8625 1.8375 0.875 2.075 1.125L8.6375 8.1C9.35 8.8625 10.65 8.8625 11.3625 8.1L17.925 1.1375C18.1625 0.8875 18.5625 0.875 18.8125 1.1125C19.0625 1.35 19.075 1.75 18.8375 2L12.275 8.975C11.675 9.6125 10.875 9.9625 10 9.9625V9.95Z" fill="#7E7E7E"/>
</svg>
