<svg xmlns="http://www.w3.org/2000/svg" viewBox="0 0 100.97 109.34"><defs><style>.cls-1{fill:#feae42;}.cls-2{fill:#fedb29;}.cls-3{fill:#232323;}</style></defs><title>Asset 1</title><g id="Layer_2" data-name="Layer 2"><g id="Layer_1-2" data-name="Layer 1"><path class="cls-1" d="M95.86,95a9.59,9.59,0,0,1-9.58,10.08H14.71A9.59,9.59,0,0,1,5.12,95l.73-14.37H95.12Z"/><path class="cls-2" d="M94.83,74.84H6.15L8,38.26a9.61,9.61,0,0,1,9.59-9.12h8.73V40.2a2,2,0,0,0,3.91,0V29.14H63.42V24.9H70.7c0,.21,0,.45,0,.66V40.2a2,2,0,1,0,3.9,0V29.14h8.74A9.62,9.62,0,0,1,93,38.26Z"/><path class="cls-3" d="M70.72,24.73v.83c0-.21,0-.45,0-.66v-.35A.55.55,0,0,1,70.72,24.73Z"/><path class="cls-3" d="M70.72,24.73v.83c0-.21,0-.45,0-.66v-.35A.55.55,0,0,1,70.72,24.73Z"/><path class="cls-3" d="M70.7,24.9c0,.21,0,.45,0,.66V24.9Z"/><path class="cls-3" d="M97.73,35A10.66,10.66,0,0,0,87.06,24.9H74.62v-.21A24.81,24.81,0,0,0,67.55,7.24,23.77,23.77,0,0,0,50.48,0C37.14,0,26.34,11.06,26.34,24.69v.21H13.91A10.63,10.63,0,0,0,3.27,35L0,98.12a10.68,10.68,0,0,0,10.67,11.22H90.29A10.68,10.68,0,0,0,101,98.12ZM8,38.26a9.61,9.61,0,0,1,9.59-9.12h8.73V40.2a2,2,0,0,0,3.91,0V29.14H61.3A2.12,2.12,0,0,0,63.42,27h0A2.12,2.12,0,0,0,61.3,24.9h-31a20.43,20.43,0,0,1,20.21-20,20,20,0,0,1,14.33,6.07A21,21,0,0,1,70.7,24.49a0,0,0,0,1,0,.06.55.55,0,0,1,0,.18V40.2a2,2,0,1,0,3.9,0V29.14h8.74A9.62,9.62,0,0,1,93,38.26l1.87,36.58H6.15Zm78.26,66.81H14.71A9.59,9.59,0,0,1,5.12,95l.73-14.37H95.12L95.86,95A9.59,9.59,0,0,1,86.28,105.07Z"/></g></g></svg>