<svg xmlns="http://www.w3.org/2000/svg" viewBox="0 0 795.74 231.49"><defs><style>.a{fill:#ffd226;}.b{fill:#575757;}.c{fill:#feae42;}.d{fill:#fedb29;}.e{fill:#232323;}.f{fill:#343434;}</style></defs><title>main logo</title><path class="a" d="M137.76,589.6V494.13h20.58V589.6Zm18-43.36V533.5H174.3q5.91,0,8.68-3.09a11.88,11.88,0,0,0,2.77-8.23c0-3.6-.93-6.41-2.77-8.43s-4.74-3-8.68-3H155.77v-16.6H173q16.22,0,24.89,6.82t8.69,19.43v1.93q0,8.75-4.44,14a24.62,24.62,0,0,1-12,7.59A58.14,58.14,0,0,1,173,546.24Zm0,43.36V573h22q5.91,0,8.88-3.09c2-2.06,3-5,3-8.75s-1-6.66-3-8.68-4.94-3-8.88-3h-22V536.72h21a58,58,0,0,1,17.37,2.38,24.69,24.69,0,0,1,12,7.65q4.38,5.28,4.38,14.28v1.8a25.92,25.92,0,0,1-3.86,14.35,24.57,24.57,0,0,1-11.32,9.2q-7.47,3.21-18.53,3.22Z" transform="translate(-137.76 -454.64)"/><path class="a" d="M259.08,591.14q-12.09,0-18.72-8t-6.63-23.93V518.32h20.72v41.94q0,5.67,3.21,9a11.41,11.41,0,0,0,8.62,3.34,12,12,0,0,0,9-3.47q3.4-3.48,3.41-9.39V518.32h20.71v70.5H283V559.1h1.29q0,10.68-2.71,17.82a21.26,21.26,0,0,1-8.1,10.68q-5.4,3.54-13.51,3.54Z" transform="translate(-137.76 -454.64)"/><path class="a" d="M341,587.28l-21.74-69h20.84l20.46,69ZM327.4,616.74V599.25h14.66a16.68,16.68,0,0,0,5.66-.84,7.75,7.75,0,0,0,3.73-2.77,15.71,15.71,0,0,0,2.32-5.27l17.24-72h19.68L371,594.49a37.13,37.13,0,0,1-5.73,13.18,19.61,19.61,0,0,1-9.77,7A49.18,49.18,0,0,1,340,616.74Zm22.12-29.46V571.2h14.93v16.08Z" transform="translate(-137.76 -454.64)"/><path d="M430.19,590.63a30.86,30.86,0,0,1-13.31-2.71,20.76,20.76,0,0,1-8.94-7.78A22.22,22.22,0,0,1,404.72,568q0-7.72,4-12.67A23.23,23.23,0,0,1,419.9,548a52.75,52.75,0,0,1,16.6-2.39h15.05v11.46H436.37q-5.4,0-8.3,2.63a9.18,9.18,0,0,0-2.89,7.14,8.89,8.89,0,0,0,2.89,6.89c1.93,1.76,4.7,2.63,8.3,2.63a15.24,15.24,0,0,0,6.24-1.22,10.15,10.15,0,0,0,4.57-4.18,17.53,17.53,0,0,0,2.05-8.23l4.89,5.14a29.53,29.53,0,0,1-3.54,12.35,19.67,19.67,0,0,1-8,7.72A26.2,26.2,0,0,1,430.19,590.63Zm22.52-1.81V568h-3.48V545.47c0-3.69-.85-6.41-2.57-8.17s-4.46-2.64-8.23-2.64q-2.83,0-7.47.13c-3.08.09-6.28.19-9.58.32s-6.28.28-8.94.45V518.19c2.06-.17,4.41-.34,7.07-.51s5.41-.3,8.24-.39,5.49-.13,8-.13q10.8,0,18.2,3.09a23.44,23.44,0,0,1,11.26,9.33q3.85,6.24,3.86,16v43.23Z" transform="translate(-137.76 -454.64)"/><path d="M496.19,588.82v-70.5h16.47v30.23H511.5q0-10.8,2.77-18a21.35,21.35,0,0,1,8.43-10.8,25.11,25.11,0,0,1,13.76-3.61h.9q12.36,0,18.85,8t6.5,24.38v40.27H542V547.4a13,13,0,0,0-3.28-9.2,11.61,11.61,0,0,0-9-3.54,12.46,12.46,0,0,0-9.32,3.6,13,13,0,0,0-3.54,9.52v41Z" transform="translate(-137.76 -454.64)"/><path d="M618.93,591.14a33.37,33.37,0,0,1-13.51-2.7,31.28,31.28,0,0,1-10.61-7.53,34.25,34.25,0,0,1-6.89-11.38,40.24,40.24,0,0,1-2.44-14.16v-3a42.09,42.09,0,0,1,2.32-14.15,35.16,35.16,0,0,1,6.62-11.51A30.2,30.2,0,0,1,604.78,519a32,32,0,0,1,13.51-2.77A28.18,28.18,0,0,1,633,519.93a24.74,24.74,0,0,1,9.64,10.81q3.48,7.14,3.86,17.56l-5.4-5V494.9h20.71v93.92H645.44v-29.2h2.83a39.06,39.06,0,0,1-4.19,17.11,26.32,26.32,0,0,1-10.22,10.74A29.59,29.59,0,0,1,618.93,591.14Zm5.28-17.24a18.15,18.15,0,0,0,8.62-2.12,16,16,0,0,0,6.37-6.24,19.57,19.57,0,0,0,2.38-9.91v-4.76a17.15,17.15,0,0,0-2.45-9.46,16.61,16.61,0,0,0-6.43-5.85,18.55,18.55,0,0,0-8.62-2.06,16.76,16.76,0,0,0-9.2,2.58,17.72,17.72,0,0,0-6.37,7.13,25.6,25.6,0,0,0,0,21.3,16.83,16.83,0,0,0,6.43,7A17.83,17.83,0,0,0,624.21,573.9Z" transform="translate(-137.76 -454.64)"/><path class="b" d="M717,591.14q-15.06,0-23.55-6.24t-9-17.43h18.27a9.29,9.29,0,0,0,4,6q3.54,2.64,10.61,2.64a19,19,0,0,0,8.94-1.87q3.54-1.86,3.54-5.34a5.71,5.71,0,0,0-2.76-5q-2.77-1.86-9.59-2.51l-5.53-.64q-12.74-1.29-19.11-7a19,19,0,0,1-6.36-14.85,20.3,20.3,0,0,1,3.73-12.48,22.76,22.76,0,0,1,10.35-7.6,41.68,41.68,0,0,1,15.12-2.57q13.64,0,22,6t8.75,17.31H728a8.49,8.49,0,0,0-3.54-5.79q-3.15-2.44-9.07-2.45a14,14,0,0,0-7.59,1.81A5.55,5.55,0,0,0,705,538a5,5,0,0,0,2.45,4.51c1.63,1,4.28,1.76,8,2.18l5.54.52q13,1.41,20.2,7.2t7.2,15.57a20.11,20.11,0,0,1-3.86,12.29,24.56,24.56,0,0,1-10.94,8A44.43,44.43,0,0,1,717,591.14Z" transform="translate(-137.76 -454.64)"/><path class="b" d="M803.81,591.4a38.47,38.47,0,0,1-15.89-3.09A33.2,33.2,0,0,1,776.41,580a36.8,36.8,0,0,1-7-11.78A38.31,38.31,0,0,1,767,554.86v-2.57a39.1,39.1,0,0,1,2.39-13.58,36,36,0,0,1,6.94-11.64,33,33,0,0,1,11.32-8.17,37.23,37.23,0,0,1,15.38-3q11.33,0,19.1,5.08a33.75,33.75,0,0,1,11.91,13.25A39.08,39.08,0,0,1,838.16,552v7h-62.4V547.27h49.92l-6.82,5.53a29.89,29.89,0,0,0-1.73-10.87,14.2,14.2,0,0,0-5.28-6.82,15.43,15.43,0,0,0-8.81-2.38,16.65,16.65,0,0,0-9.14,2.38,14.82,14.82,0,0,0-5.66,7.08,34.81,34.81,0,0,0-.12,22.51,14.83,14.83,0,0,0,5.66,7.27q3.86,2.58,10,2.57a17.61,17.61,0,0,0,9.26-2.18A11.26,11.26,0,0,0,818,567h18.92a29.77,29.77,0,0,1-6,12.61,31.39,31.39,0,0,1-11.32,8.69A37.08,37.08,0,0,1,803.81,591.4Z" transform="translate(-137.76 -454.64)"/><path class="b" d="M854.12,510.09V494.9h29.07v15.19Zm8.36,78.73V494.9h20.71v93.92Z" transform="translate(-137.76 -454.64)"/><path class="b" d="M904.42,510.09V494.9H933.5v15.19Zm8.36,78.73V494.9H933.5v93.92Z" transform="translate(-137.76 -454.64)"/><path class="c" d="M572.65,549.62a9.6,9.6,0,0,1-9.58,10.09H491.51a9.61,9.61,0,0,1-9.6-10.09l.74-14.36h89.26Z" transform="translate(-137.76 -454.64)"/><path class="d" d="M571.62,529.47H482.94l1.87-36.58a9.62,9.62,0,0,1,9.6-9.11h8.72v11.06a2,2,0,0,0,3.91,0V483.78h33.18v-4.24h7.28c0,.21,0,.45,0,.66v14.64a1.95,1.95,0,1,0,3.89,0V483.78h8.74a9.62,9.62,0,0,1,9.6,9.11Z" transform="translate(-137.76 -454.64)"/><path class="e" d="M547.52,479.36v.84c0-.21,0-.45,0-.66v-.35A.5.5,0,0,1,547.52,479.36Z" transform="translate(-137.76 -454.64)"/><path class="e" d="M547.52,479.36v.84c0-.21,0-.45,0-.66v-.35A.5.5,0,0,1,547.52,479.36Z" transform="translate(-137.76 -454.64)"/><path class="e" d="M547.5,479.54c0,.21,0,.45,0,.66v-.66Z" transform="translate(-137.76 -454.64)"/><path class="e" d="M574.52,489.64a10.65,10.65,0,0,0-10.67-10.1H551.41v-.22a24.8,24.8,0,0,0-7.07-17.44,23.75,23.75,0,0,0-17.07-7.24c-13.34,0-24.14,11.06-24.14,24.68v.22H490.71a10.63,10.63,0,0,0-10.65,10.1l-3.25,63.12A10.67,10.67,0,0,0,487.48,564h79.6a10.68,10.68,0,0,0,10.67-11.21Zm-89.71,3.25a9.62,9.62,0,0,1,9.6-9.11h8.72v11.06a2,2,0,0,0,3.91,0V483.78h31.05a2.12,2.12,0,0,0,2.13-2.12h0a2.12,2.12,0,0,0-2.13-2.12h-31a20.44,20.44,0,0,1,20.21-20,20,20,0,0,1,14.33,6.08,21,21,0,0,1,5.9,13.55,0,0,0,0,1,0,.06.5.5,0,0,1,0,.17v15.48a1.95,1.95,0,1,0,3.89,0V483.78h8.74a9.62,9.62,0,0,1,9.6,9.11l1.87,36.58H482.94Zm78.26,66.82H491.51a9.61,9.61,0,0,1-9.6-10.09l.74-14.36h89.26l.74,14.36A9.6,9.6,0,0,1,563.07,559.71Z" transform="translate(-137.76 -454.64)"/><path class="f" d="M241.39,669.9V626.58h6.17v18.58h-1a30.61,30.61,0,0,1,1.67-10.75,14.07,14.07,0,0,1,5-6.77,14.23,14.23,0,0,1,8.43-2.35H262a14.48,14.48,0,0,1,8.48,2.35,13.75,13.75,0,0,1,5,6.77,31.38,31.38,0,0,1,1.63,10.75h-2.28a29.89,29.89,0,0,1,1.71-10.75,14.14,14.14,0,0,1,5.07-6.77,14.43,14.43,0,0,1,8.48-2.35h.32a14.63,14.63,0,0,1,8.52,2.35,13.89,13.89,0,0,1,5.07,6.77,30.63,30.63,0,0,1,1.66,10.75V669.9h-7.79V643.46q0-5.28-2.59-8.16a9.23,9.23,0,0,0-7.22-2.88,10.2,10.2,0,0,0-7.71,3.05c-1.95,2-2.92,4.85-2.92,8.47v26h-7.79V643.46q0-5.28-2.59-8.16a9.23,9.23,0,0,0-7.22-2.88,10.2,10.2,0,0,0-7.71,3.05c-1.95,2-2.92,4.85-2.92,8.47v26Z" transform="translate(-137.76 -454.64)"/><path class="f" d="M338.09,671a19.7,19.7,0,0,1-8.4-1.66,12.29,12.29,0,0,1-5.43-4.83,14.52,14.52,0,0,1-1.91-7.63,13.5,13.5,0,0,1,2.07-7.7,12.67,12.67,0,0,1,6-4.67A26,26,0,0,1,340,643H351.8v5.84H339.71c-3.14,0-5.54.76-7.22,2.27a7.5,7.5,0,0,0-2.51,5.84,7.25,7.25,0,0,0,2.51,5.76c1.68,1.46,4.08,2.19,7.22,2.19a13.84,13.84,0,0,0,5.27-1,9.24,9.24,0,0,0,4.18-3.41,12.29,12.29,0,0,0,1.83-6.61l2.11,3.08a18.47,18.47,0,0,1-2.23,7.75,12.12,12.12,0,0,1-5,4.75A17,17,0,0,1,338.09,671Zm14.2-1.14v-13H351v-15c0-3-.77-5.22-2.31-6.74s-3.8-2.27-6.78-2.27c-1.68,0-3.41,0-5.19.08l-5.11.16c-1.62.06-3,.14-4.22.25v-6.82c1.19-.1,2.45-.2,3.77-.28s2.69-.13,4.1-.16,2.76,0,4.06,0a31.35,31.35,0,0,1,10.87,1.58,11.52,11.52,0,0,1,6.24,5.15q2,3.57,2,9.65V669.9Z" transform="translate(-137.76 -454.64)"/><path class="f" d="M378.89,669.9V626.58h6.17v17.85h-.33q0-9.49,4.18-13.91t12.53-4.42h1.46v7h-2.75q-6.5,0-10,3.45t-3.49,9.94V669.9Z" transform="translate(-137.76 -454.64)"/><path class="f" d="M418.32,669.9V610.68h7.78V669.9Zm29.85,0-16.31-20.2h-7.14l19.88-23.12h8.19l-18,20.85.57-4.14,21.82,26.61Z" transform="translate(-137.76 -454.64)"/><path class="f" d="M488.41,671.36a23,23,0,0,1-9.82-1.94,18.77,18.77,0,0,1-6.73-5.16,21.6,21.6,0,0,1-3.86-7.18,26.61,26.61,0,0,1-1.25-8.11v-1.46a26.93,26.93,0,0,1,1.25-8.19,21.79,21.79,0,0,1,3.86-7.18,18.56,18.56,0,0,1,6.61-5.11,21.83,21.83,0,0,1,9.45-1.91,20.64,20.64,0,0,1,11.64,3,18.72,18.72,0,0,1,6.81,7.82,23.89,23.89,0,0,1,2.23,10.22v3.49H470.15v-5.84h32.78L501.14,647a20,20,0,0,0-1.46-8,11.42,11.42,0,0,0-4.38-5.24,13.51,13.51,0,0,0-7.38-1.86,13.14,13.14,0,0,0-7.67,2.11,12.61,12.61,0,0,0-4.54,5.76,24.13,24.13,0,0,0,0,16.75,12.67,12.67,0,0,0,4.66,5.84,16.23,16.23,0,0,0,16.35-.12,8.8,8.8,0,0,0,3.85-5.28h7.3a16.87,16.87,0,0,1-10.3,12.66A23.55,23.55,0,0,1,488.41,671.36Z" transform="translate(-137.76 -454.64)"/><path class="f" d="M519.48,632.42v-5.84h29.85v5.84Zm23.2,38a23,23,0,0,1-8.4-1.38,10.47,10.47,0,0,1-5.44-4.75q-1.9-3.36-1.9-9.12v-41.7h7.46v42.67a6.63,6.63,0,0,0,7.3,7.3h7.63v7Z" transform="translate(-137.76 -454.64)"/><path class="f" d="M566.52,686.13V626.58h6.17v18.74l-1.46-.16a25.7,25.7,0,0,1,3-11.4,16.27,16.27,0,0,1,6.69-6.53,19.63,19.63,0,0,1,9-2.11,19.92,19.92,0,0,1,15.17,6.66,21.56,21.56,0,0,1,4.22,7.13,25.3,25.3,0,0,1,1.46,8.6V649a23.94,23.94,0,0,1-1.55,8.6,22,22,0,0,1-4.34,7.14,20.4,20.4,0,0,1-6.65,4.87,20.66,20.66,0,0,1-17.32-.25,16.53,16.53,0,0,1-7-6.57q-2.76-4.53-3.17-11.92l3.57,6.49v28.8Zm22-21.58a13.42,13.42,0,0,0,12.65-7.83,21.05,21.05,0,0,0,0-17,13.67,13.67,0,0,0-5-5.72,13.85,13.85,0,0,0-7.62-2.07,15.34,15.34,0,0,0-7.22,1.74,13.37,13.37,0,0,0-5.31,5,15,15,0,0,0-2,7.91v3.73a13.77,13.77,0,0,0,2,7.63,13.54,13.54,0,0,0,5.35,4.86A15.41,15.41,0,0,0,588.51,664.55Z" transform="translate(-137.76 -454.64)"/><path class="f" d="M623.07,616.85v-6.17h13.79v6.17Zm6,53V610.68h7.79V669.9Z" transform="translate(-137.76 -454.64)"/><path class="f" d="M670,671a19.65,19.65,0,0,1-8.39-1.66,12.31,12.31,0,0,1-5.44-4.83,14.52,14.52,0,0,1-1.9-7.63,13.5,13.5,0,0,1,2.07-7.7,12.67,12.67,0,0,1,6-4.67A26,26,0,0,1,671.9,643h11.76v5.84H671.58q-4.71,0-7.22,2.27a7.51,7.51,0,0,0-2.52,5.84,7.26,7.26,0,0,0,2.52,5.76q2.5,2.19,7.22,2.19a13.88,13.88,0,0,0,5.27-1,9.24,9.24,0,0,0,4.18-3.41,12.29,12.29,0,0,0,1.82-6.61l2.11,3.08a18.33,18.33,0,0,1-2.23,7.75,12.06,12.06,0,0,1-5,4.75A17,17,0,0,1,670,671Zm14.2-1.14v-13h-1.3v-15c0-3-.77-5.22-2.31-6.74s-3.8-2.27-6.77-2.27c-1.68,0-3.41,0-5.19.08l-5.12.16c-1.62.06-3,.14-4.21.25v-6.82c1.19-.1,2.44-.2,3.77-.28s2.69-.13,4.1-.16,2.75,0,4,0A31.27,31.27,0,0,1,682,627.68a11.54,11.54,0,0,1,6.25,5.15q2,3.57,2,9.65V669.9Z" transform="translate(-137.76 -454.64)"/><path class="f" d="M729.33,671.36a22.49,22.49,0,0,1-9.69-1.94,19.24,19.24,0,0,1-6.77-5.24,22.91,22.91,0,0,1-4-7.26,24.85,24.85,0,0,1-1.34-7.95v-1.46a25.3,25.3,0,0,1,1.34-8.11,21.76,21.76,0,0,1,4.06-7.18,20.33,20.33,0,0,1,6.77-5.15,21.67,21.67,0,0,1,9.49-2,22.9,22.9,0,0,1,9.78,2,17.43,17.43,0,0,1,7,5.72,16.43,16.43,0,0,1,3,8.72h-7.46a10.61,10.61,0,0,0-3.73-6.77,12.65,12.65,0,0,0-8.52-2.72,13.28,13.28,0,0,0-7.7,2.11,12.89,12.89,0,0,0-4.63,5.76,22.68,22.68,0,0,0,0,16.43,13,13,0,0,0,4.67,5.84,13.5,13.5,0,0,0,7.82,2.15,14.41,14.41,0,0,0,6.33-1.3,11.45,11.45,0,0,0,4.3-3.49,10.22,10.22,0,0,0,1.95-5h7.46a15.91,15.91,0,0,1-3,8.84,18.06,18.06,0,0,1-7.14,5.8A23.17,23.17,0,0,1,729.33,671.36Z" transform="translate(-137.76 -454.64)"/><path class="f" d="M784.5,671.36a23,23,0,0,1-9.82-1.94,18.77,18.77,0,0,1-6.73-5.16,21.6,21.6,0,0,1-3.86-7.18,26.92,26.92,0,0,1-1.25-8.11v-1.46a27.25,27.25,0,0,1,1.25-8.19,21.79,21.79,0,0,1,3.86-7.18,18.56,18.56,0,0,1,6.61-5.11,21.86,21.86,0,0,1,9.45-1.91,20.64,20.64,0,0,1,11.64,3,18.65,18.65,0,0,1,6.81,7.82,23.9,23.9,0,0,1,2.24,10.22v3.49H766.24v-5.84H799L797.23,647a19.83,19.83,0,0,0-1.46-8,11.42,11.42,0,0,0-4.38-5.24,13.49,13.49,0,0,0-7.38-1.86,13.14,13.14,0,0,0-7.67,2.11,12.68,12.68,0,0,0-4.54,5.76,24.13,24.13,0,0,0,0,16.75,12.62,12.62,0,0,0,4.67,5.84,16.21,16.21,0,0,0,16.34-.12,8.85,8.85,0,0,0,3.86-5.28H804a16.91,16.91,0,0,1-10.31,12.66A23.55,23.55,0,0,1,784.5,671.36Z" transform="translate(-137.76 -454.64)"/><path class="e" d="M711.45,547.66v.84c0-.22,0-.45,0-.67v-.35A.55.55,0,0,1,711.45,547.66Z" transform="translate(-137.76 -454.64)"/><path class="e" d="M711.45,547.66v.84c0-.22,0-.45,0-.67v-.35A.55.55,0,0,1,711.45,547.66Z" transform="translate(-137.76 -454.64)"/><path class="e" d="M711.43,547.83c0,.22,0,.45,0,.67v-.67Z" transform="translate(-137.76 -454.64)"/></svg>