<svg width="22" height="22" viewBox="0 0 22 22" fill="none" xmlns="http://www.w3.org/2000/svg">
<path d="M8.24935 4.58334C8.00623 4.58334 7.77308 4.67991 7.60117 4.85182C7.42926 5.02373 7.33268 5.25689 7.33268 5.5C7.33268 5.74312 7.42926 5.97628 7.60117 6.14818C7.77308 6.32009 8.00623 6.41667 8.24935 6.41667C8.49246 6.41667 8.72562 6.32009 8.89753 6.14818C9.06944 5.97628 9.16602 5.74312 9.16602 5.5C9.16602 5.25689 9.06944 5.02373 8.89753 4.85182C8.72562 4.67991 8.49246 4.58334 8.24935 4.58334ZM5.65518 4.58334C5.84457 4.0466 6.19578 3.58182 6.6604 3.25306C7.12502 2.9243 7.68018 2.74776 8.24935 2.74776C8.81852 2.74776 9.37368 2.9243 9.8383 3.25306C10.3029 3.58182 10.6541 4.0466 10.8435 4.58334H17.416C17.6591 4.58334 17.8923 4.67991 18.0642 4.85182C18.2361 5.02373 18.3327 5.25689 18.3327 5.5C18.3327 5.74312 18.2361 5.97628 18.0642 6.14818C17.8923 6.32009 17.6591 6.41667 17.416 6.41667H10.8435C10.6541 6.95341 10.3029 7.41819 9.8383 7.74695C9.37368 8.0757 8.81852 8.25225 8.24935 8.25225C7.68018 8.25225 7.12502 8.0757 6.6604 7.74695C6.19578 7.41819 5.84457 6.95341 5.65518 6.41667H4.58268C4.33957 6.41667 4.10641 6.32009 3.9345 6.14818C3.76259 5.97628 3.66602 5.74312 3.66602 5.5C3.66602 5.25689 3.76259 5.02373 3.9345 4.85182C4.10641 4.67991 4.33957 4.58334 4.58268 4.58334H5.65518ZM13.7493 10.0833C13.5062 10.0833 13.2731 10.1799 13.1012 10.3518C12.9293 10.5237 12.8327 10.7569 12.8327 11C12.8327 11.2431 12.9293 11.4763 13.1012 11.6482C13.2731 11.8201 13.5062 11.9167 13.7493 11.9167C13.9925 11.9167 14.2256 11.8201 14.3975 11.6482C14.5694 11.4763 14.666 11.2431 14.666 11C14.666 10.7569 14.5694 10.5237 14.3975 10.3518C14.2256 10.1799 13.9925 10.0833 13.7493 10.0833ZM11.1552 10.0833C11.3446 9.5466 11.6958 9.08182 12.1604 8.75306C12.625 8.4243 13.1802 8.24776 13.7493 8.24776C14.3185 8.24776 14.8737 8.4243 15.3383 8.75306C15.8029 9.08182 16.1541 9.5466 16.3435 10.0833H17.416C17.6591 10.0833 17.8923 10.1799 18.0642 10.3518C18.2361 10.5237 18.3327 10.7569 18.3327 11C18.3327 11.2431 18.2361 11.4763 18.0642 11.6482C17.8923 11.8201 17.6591 11.9167 17.416 11.9167H16.3435C16.1541 12.4534 15.8029 12.9182 15.3383 13.2469C14.8737 13.5757 14.3185 13.7523 13.7493 13.7523C13.1802 13.7523 12.625 13.5757 12.1604 13.2469C11.6958 12.9182 11.3446 12.4534 11.1552 11.9167H4.58268C4.33957 11.9167 4.10641 11.8201 3.9345 11.6482C3.76259 11.4763 3.66602 11.2431 3.66602 11C3.66602 10.7569 3.76259 10.5237 3.9345 10.3518C4.10641 10.1799 4.33957 10.0833 4.58268 10.0833H11.1552ZM8.24935 15.5833C8.00623 15.5833 7.77308 15.6799 7.60117 15.8518C7.42926 16.0237 7.33268 16.2569 7.33268 16.5C7.33268 16.7431 7.42926 16.9763 7.60117 17.1482C7.77308 17.3201 8.00623 17.4167 8.24935 17.4167C8.49246 17.4167 8.72562 17.3201 8.89753 17.1482C9.06944 16.9763 9.16602 16.7431 9.16602 16.5C9.16602 16.2569 9.06944 16.0237 8.89753 15.8518C8.72562 15.6799 8.49246 15.5833 8.24935 15.5833ZM5.65518 15.5833C5.84457 15.0466 6.19578 14.5818 6.6604 14.2531C7.12502 13.9243 7.68018 13.7478 8.24935 13.7478C8.81852 13.7478 9.37368 13.9243 9.8383 14.2531C10.3029 14.5818 10.6541 15.0466 10.8435 15.5833H17.416C17.6591 15.5833 17.8923 15.6799 18.0642 15.8518C18.2361 16.0237 18.3327 16.2569 18.3327 16.5C18.3327 16.7431 18.2361 16.9763 18.0642 17.1482C17.8923 17.3201 17.6591 17.4167 17.416 17.4167H10.8435C10.6541 17.9534 10.3029 18.4182 9.8383 18.7469C9.37368 19.0757 8.81852 19.2523 8.24935 19.2523C7.68018 19.2523 7.12502 19.0757 6.6604 18.7469C6.19578 18.4182 5.84457 17.9534 5.65518 17.4167H4.58268C4.33957 17.4167 4.10641 17.3201 3.9345 17.1482C3.76259 16.9763 3.66602 16.7431 3.66602 16.5C3.66602 16.2569 3.76259 16.0237 3.9345 15.8518C4.10641 15.6799 4.33957 15.5833 4.58268 15.5833H5.65518Z" fill="#727578"/>
</svg>
