<svg width="22" height="20" viewBox="0 0 22 20" fill="none" xmlns="http://www.w3.org/2000/svg">
<g opacity="0.5">
<path d="M1 4.375C1 3.47989 1.35558 2.62145 1.98851 1.98851C2.62145 1.35558 3.47989 1 4.375 1H17.875C18.7701 1 19.6286 1.35558 20.2615 1.98851C20.8944 2.62145 21.25 3.47989 21.25 4.375V15.625C21.25 16.5201 20.8944 17.3786 20.2615 18.0115C19.6286 18.6444 18.7701 19 17.875 19H4.375C3.47989 19 2.62145 18.6444 1.98851 18.0115C1.35558 17.3786 1 16.5201 1 15.625V4.375Z" stroke="black" stroke-width="1.5" stroke-linecap="round" stroke-linejoin="round"/>
<path d="M14.5 5.5H16.75M14.5 10H16.75M5.5 14.5H16.75M5.5 7.75C5.5 8.34674 5.73705 8.91903 6.15901 9.34099C6.58097 9.76295 7.15326 10 7.75 10C8.34674 10 8.91903 9.76295 9.34099 9.34099C9.76295 8.91903 10 8.34674 10 7.75C10 7.15326 9.76295 6.58097 9.34099 6.15901C8.91903 5.73705 8.34674 5.5 7.75 5.5C7.15326 5.5 6.58097 5.73705 6.15901 6.15901C5.73705 6.58097 5.5 7.15326 5.5 7.75Z" stroke="black" stroke-width="1.5" stroke-linecap="round" stroke-linejoin="round"/>
</g>
</svg>
