<svg width="63" height="78" viewBox="0 0 63 78" fill="none" xmlns="http://www.w3.org/2000/svg">
<path d="M37.6168 36.0935C37.6168 35.4428 37.3584 34.8188 36.8983 34.3588C36.4382 33.8987 35.8142 33.6402 35.1636 33.6402H15.5374C14.8867 33.6402 14.2627 33.8987 13.8027 34.3588C13.3426 34.8188 13.0841 35.4428 13.0841 36.0935C13.0841 36.7441 13.3426 37.3681 13.8027 37.8282C14.2627 38.2883 14.8867 38.5468 15.5374 38.5468H35.1636C35.8142 38.5468 36.4382 38.2883 36.8983 37.8282C37.3584 37.3681 37.6168 36.7441 37.6168 36.0935ZM37.6168 49.1776C37.6168 48.5269 37.3584 47.9029 36.8983 47.4429C36.4382 46.9828 35.8142 46.7243 35.1636 46.7243H15.5374C14.8867 46.7243 14.2627 46.9828 13.8027 47.4429C13.3426 47.9029 13.0841 48.5269 13.0841 49.1776C13.0841 49.8282 13.3426 50.4522 13.8027 50.9123C14.2627 51.3724 14.8867 51.6309 15.5374 51.6309H35.1636C35.8142 51.6309 36.4382 51.3724 36.8983 50.9123C37.3584 50.4522 37.6168 49.8282 37.6168 49.1776Z" fill="black"/>
<path fill-rule="evenodd" clip-rule="evenodd" d="M8.99533 0.929932C6.60962 0.929932 4.32162 1.87765 2.63467 3.5646C0.947719 5.25155 0 7.53955 0 9.92526V55.7197C0 58.1054 0.947719 60.3934 2.63467 62.0803C4.32162 63.7673 6.60962 64.715 8.99533 64.715H41.7056C44.0913 64.715 46.3793 63.7673 48.0663 62.0803C49.7532 60.3934 50.7009 58.1054 50.7009 55.7197V19.6337C50.7009 18.3874 50.2953 17.1771 49.543 16.1827L39.7365 3.2033C39.2029 2.49713 38.5128 1.92432 37.7205 1.52986C36.9282 1.13541 36.0552 0.930051 35.1701 0.929932H8.99533ZM4.90654 9.92526C4.90654 7.66825 6.73832 5.83647 8.99533 5.83647H32.7103V20.2192C32.7103 21.5734 33.8093 22.6725 35.1636 22.6725H45.7944V55.7197C45.7944 57.9767 43.9626 59.8084 41.7056 59.8084H8.99533C6.73832 59.8084 4.90654 57.9767 4.90654 55.7197V9.92526Z" fill="black"/>
<circle cx="46.9277" cy="61.5257" r="14.9463" fill="#14AE5C" stroke="white" stroke-width="2"/>
<path d="M47.3075 57.9827L47.3075 65.5752C47.3075 65.6759 47.2675 65.7724 47.1963 65.8436C47.1251 65.9148 47.0286 65.9548 46.9279 65.9548C46.8272 65.9548 46.7306 65.9148 46.6594 65.8436C46.5883 65.7724 46.5483 65.6759 46.5483 65.5752L46.5483 57.9827C46.5483 57.882 46.5883 57.7855 46.6594 57.7143C46.7306 57.6431 46.8272 57.6031 46.9279 57.6031C47.0286 57.6031 47.1251 57.6431 47.1963 57.7143C47.2675 57.7855 47.3075 57.882 47.3075 57.9827Z" fill="black"/>
<path d="M46.9279 58.1399L43.78 61.2885C43.7087 61.3598 43.6121 61.3998 43.5113 61.3998C43.4104 61.3998 43.3138 61.3598 43.2425 61.2885C43.1712 61.2172 43.1312 61.1205 43.1312 61.0197C43.1312 60.9189 43.1712 60.8222 43.2425 60.7509L46.6591 57.3343C46.6944 57.299 46.7363 57.2709 46.7824 57.2518C46.8285 57.2326 46.8779 57.2228 46.9279 57.2228C46.9778 57.2228 47.0273 57.2326 47.0734 57.2518C47.1195 57.2709 47.1614 57.299 47.1967 57.3343L50.6133 60.7509C50.6846 60.8222 50.7246 60.9189 50.7246 61.0197C50.7246 61.1205 50.6846 61.2172 50.6133 61.2885C50.542 61.3598 50.4453 61.3998 50.3445 61.3998C50.2437 61.3998 50.147 61.3598 50.0757 61.2885L46.9279 58.1399Z" fill="black"/>
<path d="M47.3075 57.9827L47.3075 65.5752C47.3075 65.6759 47.2675 65.7724 47.1963 65.8436C47.1251 65.9148 47.0286 65.9548 46.9279 65.9548C46.8272 65.9548 46.7306 65.9148 46.6594 65.8436C46.5883 65.7724 46.5483 65.6759 46.5483 65.5752L46.5483 57.9827C46.5483 57.882 46.5883 57.7855 46.6594 57.7143C46.7306 57.6431 46.8272 57.6031 46.9279 57.6031C47.0286 57.6031 47.1251 57.6431 47.1963 57.7143C47.2675 57.7855 47.3075 57.882 47.3075 57.9827Z" stroke="white"/>
<path d="M46.9279 58.1399L43.78 61.2885C43.7087 61.3598 43.6121 61.3998 43.5113 61.3998C43.4104 61.3998 43.3138 61.3598 43.2425 61.2885C43.1712 61.2172 43.1312 61.1205 43.1312 61.0197C43.1312 60.9189 43.1712 60.8222 43.2425 60.7509L46.6591 57.3343C46.6944 57.299 46.7363 57.2709 46.7824 57.2518C46.8285 57.2326 46.8779 57.2228 46.9279 57.2228C46.9778 57.2228 47.0273 57.2326 47.0734 57.2518C47.1195 57.2709 47.1614 57.299 47.1967 57.3343L50.6133 60.7509C50.6846 60.8222 50.7246 60.9189 50.7246 61.0197C50.7246 61.1205 50.6846 61.2172 50.6133 61.2885C50.542 61.3598 50.4453 61.3998 50.3445 61.3998C50.2437 61.3998 50.147 61.3598 50.0757 61.2885L46.9279 58.1399Z" stroke="white"/>
</svg>
