<svg width="21" height="18" viewBox="0 0 21 18" fill="none" xmlns="http://www.w3.org/2000/svg">
<path fill-rule="evenodd" clip-rule="evenodd" d="M6.27324 4.40678C6.89729 3.78632 7.92489 3.89657 8.44741 4.59497L9.09453 5.45849C9.52014 6.02664 9.48219 6.82042 8.97711 7.32243L8.85507 7.44447C8.84129 7.49571 8.83988 7.54949 8.85096 7.60138C8.88327 7.81059 9.05813 8.25363 9.79037 8.98177C10.5226 9.70992 10.9687 9.88426 11.181 9.91708C11.2345 9.92844 11.2898 9.92686 11.3425 9.91246L11.5518 9.70427C12.0009 9.25816 12.6901 9.17458 13.246 9.4766L14.2254 10.0099C15.0648 10.4652 15.2766 11.6056 14.5894 12.2892L13.8608 13.0132C13.6311 13.2414 13.3224 13.4316 12.946 13.467C12.0179 13.5537 9.85549 13.4429 7.58236 11.1831C5.461 9.07356 5.05386 7.23372 5.00206 6.32713C4.97643 5.86871 5.19282 5.48105 5.46869 5.20723L6.27324 4.40678ZM7.83208 5.05596C7.5721 4.70881 7.08804 4.68112 6.81524 4.95238L6.01018 5.75231C5.84097 5.9205 5.75995 6.10612 5.7702 6.28354C5.81123 7.00399 6.1394 8.66385 8.12487 10.638C10.2078 12.7086 12.1312 12.7707 12.8747 12.7009C13.0265 12.6871 13.1773 12.6081 13.3183 12.4681L14.0464 11.7436C14.3428 11.4493 14.2777 10.9129 13.8582 10.6852L12.8788 10.1524C12.6081 10.0058 12.2912 10.054 12.0943 10.2499L11.861 10.4822L11.5892 10.2094C11.861 10.4822 11.8604 10.4827 11.8599 10.4827L11.8594 10.4837L11.8579 10.4852L11.8543 10.4883L11.8466 10.4955C11.8248 10.5154 11.8015 10.5336 11.7769 10.5498C11.7358 10.577 11.6815 10.6073 11.6133 10.6324C11.4748 10.6842 11.2913 10.7119 11.0646 10.677C10.62 10.6088 10.0309 10.3058 9.24785 9.52737C8.46536 8.74897 8.15974 8.16338 8.09103 7.71932C8.05565 7.49267 8.08385 7.3091 8.13615 7.17065C8.16516 7.09284 8.20635 7.02014 8.25819 6.95528L8.2746 6.93733L8.28178 6.92964L8.28486 6.92657L8.2864 6.92503L8.28742 6.924L8.4351 6.77735C8.65457 6.55839 8.68534 6.19586 8.47869 5.91947L7.83208 5.05596Z" fill="#7E7E7E"/>
<path d="M5.00206 6.32713C5.05386 7.23372 5.461 9.07356 7.58236 11.1831C9.85549 13.4429 12.0179 13.5537 12.946 13.467C13.3224 13.4316 13.6311 13.2414 13.8608 13.0132L14.5894 12.2892C15.2766 11.6056 15.0648 10.4652 14.2254 10.0099L13.246 9.4766C12.6901 9.17458 12.0009 9.25816 11.5518 9.70427L11.3425 9.91246C11.2898 9.92686 11.2345 9.92844 11.181 9.91708C10.9687 9.88426 10.5226 9.70992 9.79037 8.98177C9.05813 8.25363 8.88327 7.81059 8.85096 7.60138C8.83988 7.54949 8.84129 7.49571 8.85507 7.44447L8.97711 7.32243C9.48219 6.82042 9.52014 6.02664 9.09453 5.45849L8.44741 4.59497C7.92489 3.89657 6.89729 3.78632 6.27324 4.40678L5.46869 5.20723C5.19282 5.48105 4.97643 5.86871 5.00206 6.32713ZM5.00206 6.32713L5.38613 6.30559M8.28742 6.924L8.2864 6.92503L8.28486 6.92657L8.28178 6.92964L8.2746 6.93733L8.25819 6.95528C8.20635 7.02014 8.16516 7.09284 8.13615 7.17065C8.08385 7.3091 8.05565 7.49267 8.09103 7.71932C8.15974 8.16338 8.46536 8.74897 9.24785 9.52737C10.0309 10.3058 10.62 10.6088 11.0646 10.677C11.2913 10.7119 11.4748 10.6842 11.6133 10.6324C11.6815 10.6073 11.7358 10.577 11.7769 10.5498C11.8015 10.5336 11.8248 10.5154 11.8466 10.4955L11.8543 10.4883L11.8579 10.4852L11.8594 10.4837L11.8599 10.4827C11.8604 10.4827 11.861 10.4822 11.5892 10.2094L11.861 10.4822L12.0943 10.2499C12.2912 10.054 12.6081 10.0058 12.8788 10.1524L13.8582 10.6852C14.2777 10.9129 14.3428 11.4493 14.0464 11.7436L13.3183 12.4681C13.1773 12.6081 13.0265 12.6871 12.8747 12.7009C12.1312 12.7707 10.2078 12.7086 8.12487 10.638C6.1394 8.66385 5.81123 7.004 5.7702 6.28354C5.75995 6.10612 5.84097 5.9205 6.01018 5.75231L6.81524 4.95238C7.08804 4.68112 7.5721 4.70881 7.83208 5.05596L8.47869 5.91947C8.68534 6.19586 8.65457 6.55839 8.4351 6.77735L8.28742 6.924ZM8.28742 6.924L8.55919 7.19577" stroke="#7E7E7E" stroke-width="0.4"/>
<rect x="0.75" y="0.75" width="18.75" height="16.5" rx="4.25" stroke="#7E7E7E" stroke-width="1.5"/>
</svg>
