<svg width="28" height="28" viewBox="0 0 28 28" fill="none" xmlns="http://www.w3.org/2000/svg">
<path d="M12.4217 19.1958H14.6801V12.4208H12.4217V19.1958ZM13.5509 10.1625C13.8708 10.1625 14.1392 10.0541 14.356 9.8373C14.5728 9.6205 14.6808 9.35251 14.6801 9.03333C14.6801 8.7134 14.5717 8.44541 14.3549 8.22936C14.1381 8.01332 13.8701 7.90492 13.5509 7.90416C13.231 7.90416 12.963 8.01257 12.7469 8.22936C12.5309 8.44617 12.4225 8.71415 12.4217 9.03333C12.4217 9.35326 12.5301 9.62163 12.7469 9.83843C12.9637 10.0552 13.2317 10.1633 13.5509 10.1625ZM13.5509 24.8417C10.935 24.183 8.77529 22.6819 7.07175 20.3385C5.36822 17.9952 4.51683 15.3936 4.51758 12.5337V5.64583L13.5509 2.25833L22.5842 5.64583V12.5337C22.5842 15.3943 21.7329 17.9963 20.0301 20.3397C18.3273 22.6831 16.1676 24.1837 13.5509 24.8417ZM13.5509 22.4704C15.5081 21.8494 17.1266 20.6073 18.4063 18.7442C19.6861 16.881 20.3259 14.8109 20.3259 12.5337V7.19844L13.5509 4.65781L6.77591 7.19844V12.5337C6.77591 14.8109 7.41577 16.881 8.6955 18.7442C9.97522 20.6073 11.5937 21.8494 13.5509 22.4704Z" fill="#7B7B7B"/>
</svg>
