<svg width="31" height="31" viewBox="0 0 31 31" fill="none" xmlns="http://www.w3.org/2000/svg">
<path d="M22.7327 9.30001H19.6327V8.26668C19.6327 7.71856 19.4149 7.1929 19.0274 6.80532C18.6398 6.41775 18.1141 6.20001 17.566 6.20001H13.4327C12.8846 6.20001 12.3589 6.41775 11.9713 6.80532C11.5838 7.1929 11.366 7.71856 11.366 8.26668V9.30001H8.26602C7.44384 9.30001 6.65535 9.62662 6.07398 10.208C5.49262 10.7893 5.16602 11.5778 5.16602 12.4V21.7C5.16602 22.5222 5.49262 23.3107 6.07398 23.892C6.65535 24.4734 7.44384 24.8 8.26602 24.8H22.7327C23.5549 24.8 24.3434 24.4734 24.9247 23.892C25.5061 23.3107 25.8327 22.5222 25.8327 21.7V12.4C25.8327 11.5778 25.5061 10.7893 24.9247 10.208C24.3434 9.62662 23.5549 9.30001 22.7327 9.30001ZM13.4327 8.26668H17.566V9.30001H13.4327V8.26668ZM23.766 21.7C23.766 21.9741 23.6571 22.2369 23.4634 22.4307C23.2696 22.6245 23.0067 22.7333 22.7327 22.7333H8.26602C7.99196 22.7333 7.72913 22.6245 7.53534 22.4307C7.34155 22.2369 7.23268 21.9741 7.23268 21.7V15.903L12.0687 17.5667C12.1784 17.5816 12.2896 17.5816 12.3993 17.5667H18.5994C18.7114 17.5646 18.8227 17.5472 18.93 17.515L23.766 15.903V21.7ZM23.766 13.7227L18.434 15.5H12.5647L7.23268 13.7227V12.4C7.23268 12.126 7.34155 11.8631 7.53534 11.6693C7.72913 11.4755 7.99196 11.3667 8.26602 11.3667H22.7327C23.0067 11.3667 23.2696 11.4755 23.4634 11.6693C23.6571 11.8631 23.766 12.126 23.766 12.4V13.7227Z" fill="#7B7B7B"/>
</svg>
