<svg width="29" height="29" viewBox="0 0 29 29" fill="none" xmlns="http://www.w3.org/2000/svg">
<path d="M14.2524 13.6587C14.2185 13.6587 14.1959 13.6587 14.1621 13.6587C14.1056 13.6474 14.0266 13.6474 13.9588 13.6587C10.684 13.557 8.21094 10.9824 8.21094 7.80918C8.21094 4.57954 10.8421 1.94839 14.0717 1.94839C17.3014 1.94839 19.9325 4.57954 19.9325 7.80918C19.9212 10.9824 17.4369 13.557 14.2863 13.6587C14.275 13.6587 14.2637 13.6587 14.2524 13.6587ZM14.0717 3.64226C11.7794 3.64226 9.90481 5.51681 9.90481 7.80918C9.90481 10.0677 11.6664 11.8858 13.9136 11.9648C13.9701 11.9535 14.1282 11.9535 14.275 11.9648C16.4883 11.8632 18.2273 10.0451 18.2386 7.80918C18.2386 5.51681 16.3641 3.64226 14.0717 3.64226Z" fill="#7B7B7B"/>
<path d="M14.2652 26.0014C12.0519 26.0014 9.82725 25.4368 8.14468 24.3075C6.57502 23.2686 5.7168 21.8458 5.7168 20.2987C5.7168 18.7516 6.57502 17.3175 8.14468 16.2673C11.5324 14.0201 17.0205 14.0201 20.3857 16.2673C21.9441 17.3062 22.8136 18.729 22.8136 20.2761C22.8136 21.8232 21.9554 23.2573 20.3857 24.3075C18.6918 25.4368 16.4785 26.0014 14.2652 26.0014ZM9.08195 17.6901C7.99787 18.4128 7.41067 19.3388 7.41067 20.31C7.41067 21.2698 8.00917 22.1958 9.08195 22.9072C11.8938 24.7931 16.6366 24.7931 19.4484 22.9072C20.5325 22.1845 21.1197 21.2585 21.1197 20.2874C21.1197 19.3275 20.5212 18.4016 19.4484 17.6901C16.6366 15.8156 11.8938 15.8156 9.08195 17.6901Z" fill="#7B7B7B"/>
</svg>
