<svg width="22" height="27" viewBox="0 0 22 27" fill="none" xmlns="http://www.w3.org/2000/svg">
<path d="M19.25 8.6631H2.75C2.02088 8.66383 1.32183 8.9538 0.80626 9.46936C0.290693 9.98493 0.00072803 10.684 0 11.4131V16.9131C0.000485354 17.3992 0.193796 17.8652 0.537507 18.2089C0.881219 18.5526 1.34725 18.746 1.83333 18.7464V25.1631C1.83382 25.6492 2.02713 26.1152 2.37084 26.4589C2.71455 26.8026 3.18059 26.996 3.66667 26.9964H7.33333C7.81941 26.996 8.28545 26.8026 8.62916 26.4589C8.97287 26.1152 9.16618 25.6492 9.16667 25.1631V14.1631H7.33333V25.1631H3.66667V16.9131H1.83333V11.4131C1.83333 11.17 1.92991 10.9368 2.10182 10.7649C2.27373 10.593 2.50688 10.4964 2.75 10.4964H19.25C19.4931 10.4964 19.7263 10.593 19.8982 10.7649C20.0701 10.9368 20.1667 11.17 20.1667 11.4131V16.9131H18.3333V25.1631H14.6667V14.1631H12.8333V25.1631C12.8338 25.6492 13.0271 26.1152 13.3708 26.4589C13.7146 26.8026 14.1806 26.996 14.6667 26.9964H18.3333C18.8194 26.996 19.2854 26.8026 19.6292 26.4589C19.9729 26.1152 20.1662 25.6492 20.1667 25.1631V18.7464C20.6527 18.746 21.1188 18.5526 21.4625 18.2089C21.8062 17.8652 21.9995 17.3992 22 16.9131V11.4131C21.9993 10.684 21.7093 9.98493 21.1937 9.46936C20.6782 8.9538 19.9791 8.66383 19.25 8.6631ZM5.5 7.74644C4.7748 7.74644 4.06589 7.53139 3.46291 7.12849C2.85993 6.72559 2.38996 6.15294 2.11244 5.48294C1.83492 4.81295 1.76231 4.0757 1.90379 3.36444C2.04527 2.65317 2.39448 1.99984 2.90728 1.48704C3.42007 0.974252 4.07341 0.625036 4.78467 0.483557C5.49593 0.342078 6.23318 0.41469 6.90317 0.692211C7.57317 0.969733 8.14582 1.4397 8.54872 2.04268C8.95162 2.64566 9.16667 3.35457 9.16667 4.07977C9.1657 5.05193 8.77908 5.984 8.09165 6.67142C7.40423 7.35885 6.47216 7.74547 5.5 7.74644ZM5.5 2.24644C5.1374 2.24644 4.78294 2.35396 4.48145 2.55541C4.17996 2.75686 3.94498 3.04319 3.80622 3.37818C3.66746 3.71318 3.63115 4.0818 3.70189 4.43744C3.77263 4.79307 3.94724 5.11974 4.20364 5.37613C4.46003 5.63253 4.7867 5.80714 5.14233 5.87788C5.49797 5.94862 5.86659 5.91231 6.20159 5.77355C6.53658 5.63479 6.82291 5.39981 7.02436 5.09831C7.22581 4.79682 7.33333 4.44237 7.33333 4.07977C7.33285 3.59369 7.13954 3.12765 6.79583 2.78394C6.45211 2.44023 5.98608 2.24692 5.5 2.24644ZM16.5 7.74644C15.7748 7.74644 15.0659 7.53139 14.4629 7.12849C13.8599 6.72559 13.39 6.15294 13.1124 5.48294C12.8349 4.81295 12.7623 4.0757 12.9038 3.36444C13.0453 2.65317 13.3945 1.99984 13.9073 1.48704C14.4201 0.974252 15.0734 0.625036 15.7847 0.483557C16.4959 0.342078 17.2332 0.41469 17.9032 0.692211C18.5732 0.969733 19.1458 1.4397 19.5487 2.04268C19.9516 2.64566 20.1667 3.35457 20.1667 4.07977C20.1657 5.05193 19.7791 5.984 19.0917 6.67142C18.4042 7.35885 17.4722 7.74547 16.5 7.74644ZM16.5 2.24644C16.1374 2.24644 15.7829 2.35396 15.4815 2.55541C15.18 2.75686 14.945 3.04319 14.8062 3.37818C14.6675 3.71318 14.6312 4.0818 14.7019 4.43744C14.7726 4.79307 14.9472 5.11974 15.2036 5.37613C15.46 5.63253 15.7867 5.80714 16.1423 5.87788C16.498 5.94862 16.8666 5.91231 17.2016 5.77355C17.5366 5.63479 17.8229 5.39981 18.0244 5.09831C18.2258 4.79682 18.3333 4.44237 18.3333 4.07977C18.3328 3.59369 18.1395 3.12765 17.7958 2.78394C17.4521 2.44023 16.9861 2.24692 16.5 2.24644Z" fill="#7B7B7B"/>
</svg>
