<svg width="32" height="32" viewBox="0 0 32 32" fill="none" xmlns="http://www.w3.org/2000/svg">
<path d="M16 4C13.856 4 12.116 5.72 12.03 7.844C10.2373 8.61001 8.70966 9.88662 7.63741 11.5147C6.56515 13.1429 5.9957 15.0505 6 17C6 17.17 5.992 17.36 6 17.563C4.815 18.259 4 19.535 4 21C4 23.197 5.803 25 8 25C8.575 25 9.13 24.878 9.625 24.656C11.358 26.112 13.618 27 16 27C18.382 27 20.642 26.112 22.375 24.656C22.8864 24.8837 23.4402 25.0009 24 25C26.197 25 28 23.197 28 21C28 19.52 27.175 18.223 25.97 17.53C25.985 17.37 26 17.21 26 17C26.0046 15.0505 25.4352 13.1427 24.3629 11.5145C23.2906 9.88635 21.7628 8.6098 19.97 7.844C19.883 5.72 18.143 4 16 4ZM16 6C17.116 6 18 6.884 18 8C18 9.116 17.116 10 16 10C14.884 10 14 9.116 14 8C14 6.884 14.884 6 16 6ZM12.47 9.844C13.14 11.118 14.47 12 16 12C17.53 12 18.86 11.118 19.53 9.844C20.8725 10.4959 22.004 11.5131 22.7946 12.7788C23.5853 14.0446 24.0031 15.5076 24 17C21.803 17 20 18.803 20 21C20 21.895 20.31 22.706 20.813 23.375C19.4251 24.42 17.7373 24.9899 16 25C14.2627 24.9901 12.5748 24.4202 11.187 23.375C11.7104 22.6935 11.9959 21.8593 12 21C12 18.803 10.197 17 8 17C8 13.88 9.79 11.144 12.47 9.844ZM8 19C9.116 19 10 19.884 10 21C10 22.116 9.116 23 8 23C6.884 23 6 22.116 6 21C6 19.884 6.884 19 8 19ZM24 19C25.116 19 26 19.884 26 21C26 22.116 25.116 23 24 23C22.884 23 22 22.116 22 21C22 19.884 22.884 19 24 19Z" fill="#7B7B7B"/>
</svg>
