<svg width="141" height="141" viewBox="0 0 141 141" fill="none" xmlns="http://www.w3.org/2000/svg">
<path fill-rule="evenodd" clip-rule="evenodd" d="M29.8514 141V139H20C10.0589 139 2 130.941 2 121V102.833H0V121C0 132.046 8.95431 141 20 141H29.8514ZM111.784 139V141H121C132.046 141 141 132.046 141 121V102.833H139V121C139 130.941 130.941 139 121 139H111.784ZM111.784 2V0H121C132.046 0 141 8.95431 141 20V39.2244H139V20C139 10.0589 130.941 2 121 2H111.784ZM29.8514 2V0H20C8.95431 0 0 8.95431 0 20V39.2244H2V20C2 10.0589 10.0589 2 20 2H29.8514Z" fill="#FFBE01"/>
</svg>
