<svg width="15" height="15" viewBox="0 0 15 15" fill="none" xmlns="http://www.w3.org/2000/svg">
<path d="M7.5 7.8125C6.91984 7.8125 6.36344 8.04297 5.9532 8.4532C5.54297 8.86344 5.3125 9.41984 5.3125 10C5.3125 10.5802 5.54297 11.1366 5.9532 11.5468C6.36344 11.957 6.91984 12.1875 7.5 12.1875C8.08016 12.1875 8.63656 11.957 9.0468 11.5468C9.45703 11.1366 9.6875 10.5802 9.6875 10C9.6875 9.41984 9.45703 8.86344 9.0468 8.4532C8.63656 8.04297 8.08016 7.8125 7.5 7.8125ZM6.5625 10C6.5625 9.75136 6.66127 9.5129 6.83709 9.33709C7.0129 9.16127 7.25136 9.0625 7.5 9.0625C7.74864 9.0625 7.9871 9.16127 8.16291 9.33709C8.33873 9.5129 8.4375 9.75136 8.4375 10C8.4375 10.2486 8.33873 10.4871 8.16291 10.6629C7.9871 10.8387 7.74864 10.9375 7.5 10.9375C7.25136 10.9375 7.0129 10.8387 6.83709 10.6629C6.66127 10.4871 6.5625 10.2486 6.5625 10Z" fill="#1A2B88"/>
<path d="M10.9537 3.19751L8.96688 0.41188L1.66125 6.24813L1.25625 6.24376V6.25001H0.9375V13.75H14.0625V6.25001H13.4613L12.265 2.75063L10.9537 3.19751ZM12.1406 6.25001H5.87313L10.5412 4.65876L11.4925 4.35438L12.1406 6.25001ZM9.71875 3.61876L4.9 5.26126L8.71625 2.21251L9.71875 3.61876ZM2.1875 11.3556V8.64313C2.45118 8.54969 2.69069 8.39858 2.88856 8.20082C3.08643 8.00306 3.23767 7.76364 3.33125 7.50001H11.6687C11.7623 7.76373 11.9135 8.00326 12.1114 8.20113C12.3092 8.39899 12.5488 8.55021 12.8125 8.64375V11.3563C12.5488 11.4498 12.3092 11.601 12.1114 11.7989C11.9135 11.9967 11.7623 12.2363 11.6687 12.5H3.3325C3.23886 12.2361 3.08748 11.9963 2.88939 11.7984C2.6913 11.6004 2.4515 11.4491 2.1875 11.3556Z" fill="#1A2B88"/>
</svg>
