<svg width="11" height="11" viewBox="0 0 11 11" fill="none" xmlns="http://www.w3.org/2000/svg">
<path d="M10.1961 4.64161C10.1223 4.40496 9.92645 4.23238 9.69116 4.19643L6.99418 3.78719L5.78774 1.23441C5.68199 1.01083 5.46485 0.869629 5.22644 0.869629C4.98803 0.869629 4.77089 1.01083 4.66514 1.23441L3.45932 3.78719L0.76234 4.19643C0.526433 4.23238 0.330573 4.40496 0.25736 4.64161C0.183522 4.87826 0.244845 5.13779 0.415675 5.31168L2.36739 7.29899L1.90684 10.1054C1.86679 10.3506 1.96315 10.5983 2.15589 10.7448C2.26414 10.8278 2.39304 10.8696 2.5232 10.8696C2.62269 10.8696 2.72281 10.8448 2.81417 10.7945L5.22644 9.46935L7.6387 10.7945C7.73006 10.8448 7.83018 10.8696 7.92968 10.8696C8.05921 10.8696 8.18874 10.8278 8.29762 10.7448C8.49035 10.5983 8.58672 10.3506 8.54667 10.1054L8.08612 7.29899L10.0378 5.31168C10.208 5.13844 10.2694 4.87826 10.1961 4.64161Z" fill="#FFCC00"/>
</svg>
