<svg width="11" height="11" viewBox="0 0 11 11" fill="none" xmlns="http://www.w3.org/2000/svg">
<path d="M10.6043 4.64161C10.5305 4.40496 10.3347 4.23238 10.0994 4.19643L7.40239 3.78719L6.19594 1.23441C6.09019 1.01083 5.87305 0.869629 5.63464 0.869629C5.39623 0.869629 5.1791 1.01083 5.07334 1.23441L3.86753 3.78719L1.17054 4.19643C0.934636 4.23238 0.738776 4.40496 0.665563 4.64161C0.591725 4.87826 0.653048 5.13779 0.823878 5.31168L2.77559 7.29899L2.31504 10.1054C2.27499 10.3506 2.37136 10.5983 2.56409 10.7448C2.67234 10.8278 2.80125 10.8696 2.9314 10.8696C3.0309 10.8696 3.13102 10.8448 3.22238 10.7945L5.63464 9.46935L8.04691 10.7945C8.13827 10.8448 8.23839 10.8696 8.33788 10.8696C8.46741 10.8696 8.59694 10.8278 8.70582 10.7448C8.89855 10.5983 8.99492 10.3506 8.95487 10.1054L8.49432 7.29899L10.446 5.31168C10.6162 5.13844 10.6776 4.87826 10.6043 4.64161Z" fill="#D2D2D2"/>
</svg>
