<svg width="17" height="21" viewBox="0 0 17 21" fill="none" xmlns="http://www.w3.org/2000/svg">
<path d="M11.198 19.9999V11.8879H4.95801V19.9999L7.9138 17.6448L11.198 19.9999Z" fill="#FEAE42" stroke="#232323" stroke-width="1.3" stroke-linejoin="round"/>
<path d="M7.34941 2.4892L7.3497 2.48895C7.56982 2.29939 7.85026 2.19444 8.14074 2.19292C8.43123 2.1914 8.71275 2.29341 8.93484 2.48065L9.77955 3.19287C9.7796 3.1929 9.77964 3.19294 9.77969 3.19298C9.9846 3.36579 10.2388 3.46957 10.5061 3.48955L10.5063 3.48956L11.6083 3.57161C11.6084 3.57162 11.6084 3.57162 11.6085 3.57162C11.8982 3.5933 12.1707 3.71748 12.3771 3.9219C12.5836 4.12635 12.7105 4.39767 12.735 4.6872C12.735 4.68721 12.735 4.68722 12.735 4.68724L12.828 5.78812L13.4698 5.73388L12.828 5.78812C12.8506 6.05556 12.9571 6.30902 13.1322 6.51235L13.8529 7.34974L13.8529 7.34975C14.0424 7.56989 14.1473 7.85033 14.1487 8.14078C14.1502 8.43123 14.0481 8.7127 13.8609 8.93473L13.8608 8.9348L13.1486 9.77952C13.1485 9.77956 13.1485 9.77961 13.1485 9.77965C12.9757 9.98456 12.8719 10.2388 12.8519 10.5061L12.8519 10.5062L12.7698 11.6083C12.7698 11.6083 12.7698 11.6084 12.7698 11.6085C12.7481 11.8982 12.624 12.1707 12.4195 12.3771C12.2151 12.5836 11.9437 12.7104 11.6542 12.7349L10.5533 12.828L10.5533 12.828C10.286 12.8505 10.0326 12.957 9.82933 13.132C9.82925 13.1321 9.82917 13.1321 9.82909 13.1322L8.9917 13.8529L8.9917 13.8529C8.77155 14.0424 8.49112 14.1472 8.20067 14.1487C7.91022 14.1501 7.62875 14.0481 7.40672 13.8608L7.40664 13.8608L6.56193 13.1485C6.56188 13.1485 6.56184 13.1485 6.56179 13.1484C6.35689 12.9756 6.10269 12.8718 5.83538 12.8519L5.83521 12.8519L4.73335 12.7698C4.44367 12.7481 4.17121 12.6239 3.96482 12.4195C3.75843 12.215 3.6316 11.9438 3.60709 11.6543L3.60708 11.6541L3.51349 10.5533C3.51349 10.5533 3.51349 10.5532 3.51348 10.5532C3.51348 10.5531 3.51347 10.553 3.51346 10.553C3.49082 10.2858 3.38447 10.0326 3.20955 9.82942C3.20951 9.82937 3.20946 9.82932 3.20941 9.82926C3.20935 9.82919 3.20929 9.82912 3.20923 9.82905L2.48924 8.99203L2.48899 8.99174C2.29943 8.77163 2.19447 8.49119 2.19295 8.2007C2.19143 7.91022 2.29344 7.62869 2.48069 7.40661L3.1929 6.56189C3.36578 6.35696 3.4696 6.10271 3.48958 5.83535L3.48959 5.83517L3.57163 4.73331C3.57164 4.73327 3.57164 4.73323 3.57164 4.7332C3.59339 4.44356 3.71759 4.17115 3.92198 3.96478C4.1264 3.75839 4.39765 3.63157 4.68711 3.60706L4.68732 3.60704L5.78816 3.51345C5.78827 3.51345 5.78837 3.51344 5.78848 3.51343C6.05563 3.49078 6.30883 3.38443 6.51202 3.20952C6.51214 3.20941 6.51227 3.2093 6.51239 3.2092L7.34941 2.4892Z" fill="#FEDB29" stroke="#232323" stroke-width="1.3" stroke-linecap="round" stroke-linejoin="round"/>
</svg>
